# This file uses centimeters as units for non-parametric coordinates.

mtllib railCurved2.mtl
g default
v -8.973727 3.166831 -6.770011
v -8.783581 3.166831 -6.768659
v -8.973648 3.044558 -6.770075
v -8.783496 3.044558 -6.768728
v -6.037095 3.168123 -1.857828
v -6.037115 3.045842 -1.857920
v -5.889750 3.045726 -1.858873
v -5.889955 3.168006 -1.858782
v -8.401618 3.168499 -5.656951
v -8.567350 3.168525 -5.596526
v -8.565247 3.046272 -5.597417
v -8.402642 3.046239 -5.655853
v -7.714179 3.170451 -4.737126
v -7.859708 3.170466 -4.633447
v -7.859437 3.048193 -4.633616
v -7.713987 3.048178 -4.737227
v -7.044521 3.171379 -3.913230
v -7.179418 3.171355 -3.812095
v -7.179153 3.049082 -3.812298
v -7.044393 3.049106 -3.913314
v -6.402840 3.170639 -3.161836
v -6.542481 3.170656 -3.066146
v -6.542272 3.048384 -3.066394
v -6.402757 3.048367 -3.161975
v -6.028687 3.169049 -2.485753
v -6.184917 3.169169 -2.431862
v -6.184817 3.046896 -2.432057
v -6.028553 3.046776 -2.485954
v -8.681808 3.152708 -6.143207
v -8.841911 3.158560 -6.108674
v -8.845242 3.036239 -6.107524
v -8.681705 3.048353 -6.143296
v -8.049707 3.047378 -5.162607
v -8.204117 3.047321 -5.082706
v -8.204344 3.169593 -5.082595
v -8.049883 3.169650 -5.162534
v -7.356507 3.171058 -4.296225
v -7.495924 3.171058 -4.192855
v -7.495645 3.048785 -4.193040
v -7.356317 3.048785 -4.296333
v -6.721028 3.171239 -3.537240
v -6.857153 3.171240 -3.436483
v -6.856855 3.048968 -3.436758
v -6.720913 3.048967 -3.537353
v -6.174618 3.169837 -2.820339
v -6.319284 3.168185 -2.741361
v -6.319184 3.049298 -2.741543
v -6.174540 3.047565 -2.820518
v -5.919443 3.168384 -2.141016
v -6.073058 3.161744 -2.114910
v -6.072941 3.053065 -2.115057
v -5.919285 3.046110 -2.141204
v -9.803660 3.166831 -6.770011
v -9.613514 3.166831 -6.768659
v -9.803581 3.044558 -6.770075
v -9.613429 3.044558 -6.768728
v -6.867029 3.168123 -1.857828
v -6.867049 3.045842 -1.857920
v -6.719683 3.045726 -1.858873
v -6.719889 3.168006 -1.858782
v -9.231552 3.168499 -5.656951
v -9.397284 3.168525 -5.596526
v -9.395180 3.046272 -5.597417
v -9.232576 3.046239 -5.655853
v -8.544112 3.170451 -4.737126
v -8.689642 3.170466 -4.633447
v -8.689371 3.048193 -4.633616
v -8.543921 3.048178 -4.737227
v -7.874454 3.171379 -3.913230
v -8.009352 3.171355 -3.812095
v -8.009087 3.049082 -3.812298
v -7.874326 3.049106 -3.913314
v -7.232773 3.170639 -3.161836
v -7.372415 3.170656 -3.066146
v -7.372205 3.048384 -3.066394
v -7.232690 3.048367 -3.161975
v -6.858621 3.169049 -2.485753
v -7.014851 3.169169 -2.431862
v -7.014751 3.046896 -2.432057
v -6.858487 3.046776 -2.485954
v -9.511742 3.152708 -6.143207
v -9.671844 3.158560 -6.108674
v -9.675175 3.036239 -6.107524
v -9.511638 3.048353 -6.143296
v -8.879641 3.047378 -5.162607
v -9.034050 3.047321 -5.082706
v -9.034278 3.169593 -5.082595
v -8.879817 3.169650 -5.162534
v -8.186440 3.171058 -4.296225
v -8.325857 3.171058 -4.192855
v -8.325578 3.048785 -4.193040
v -8.186251 3.048785 -4.296333
v -7.550961 3.171239 -3.537240
v -7.687087 3.171240 -3.436483
v -7.686789 3.048968 -3.436758
v -7.550847 3.048967 -3.537353
v -7.004551 3.169837 -2.820339
v -7.149218 3.168185 -2.741361
v -7.149117 3.049298 -2.741543
v -7.004474 3.047565 -2.820518
v -6.749377 3.168384 -2.141016
v -6.902992 3.161744 -2.114910
v -6.902875 3.053065 -2.115057
v -6.749219 3.046110 -2.141204
vt 0.375000 0.500000
vt 0.625000 0.500000
vt 0.375000 0.750000
vt 0.625000 0.750000
vt 0.875000 0.000000
vt 0.875000 0.250000
vt 0.125000 0.000000
vt 0.125000 0.250000
vt 0.250000 0.250000
vt 0.375000 0.375000
vt 0.250000 0.000831
vt 0.375254 0.875000
vt 0.624661 0.875000
vt 0.750000 0.000831
vt 0.625000 0.375000
vt 0.750000 0.250000
vt 0.000000 0.000000
vt 1.000000 0.000000
vt 0.998230 3.147116
vt 0.001355 3.136530
vt 0.625000 0.479167
vt 0.854167 0.250000
vt 0.145833 0.250000
vt 0.375000 0.479167
vt 0.145833 0.000138
vt 0.375042 0.770833
vt 0.624943 0.770833
vt 0.854167 0.000138
vt 0.625000 0.458333
vt 0.833333 0.250000
vt 0.166667 0.250000
vt 0.375000 0.458333
vt 0.166667 0.000277
vt 0.375085 0.791667
vt 0.624887 0.791667
vt 0.833333 0.000277
vt 0.625000 0.437500
vt 0.812500 0.250000
vt 0.187500 0.250000
vt 0.375000 0.437500
vt 0.187500 0.000415
vt 0.375127 0.812500
vt 0.624831 0.812500
vt 0.812500 0.000415
vt 0.625000 0.416667
vt 0.791667 0.250000
vt 0.208333 0.250000
vt 0.375000 0.416667
vt 0.208333 0.000554
vt 0.375169 0.833333
vt 0.624774 0.833333
vt 0.791667 0.000554
vt 0.625000 0.395833
vt 0.770833 0.250000
vt 0.229167 0.250000
vt 0.375000 0.395833
vt 0.229166 0.000692
vt 0.375212 0.854166
vt 0.624718 0.854166
vt 0.770834 0.000692
vt 0.625000 0.489583
vt 0.864583 0.250000
vt 0.135417 0.250000
vt 0.375000 0.489583
vt 0.135417 0.000069
vt 0.375021 0.760417
vt 0.624972 0.760417
vt 0.864583 0.000069
vt 0.624915 0.781250
vt 0.843750 0.000208
vt 0.156250 0.000208
vt 0.375063 0.781250
vt 0.156250 0.250000
vt 0.375000 0.468750
vt 0.625000 0.468750
vt 0.843750 0.250000
vt 0.625000 0.447917
vt 0.822917 0.250000
vt 0.177083 0.250000
vt 0.375000 0.447917
vt 0.177083 0.000346
vt 0.375106 0.802083
vt 0.624859 0.802083
vt 0.822917 0.000346
vt 0.625000 0.427083
vt 0.802083 0.250000
vt 0.197917 0.250000
vt 0.375000 0.427083
vt 0.197916 0.000484
vt 0.375148 0.822916
vt 0.624802 0.822917
vt 0.802083 0.000484
vt 0.625000 0.406250
vt 0.781250 0.250000
vt 0.218750 0.250000
vt 0.375000 0.406250
vt 0.218750 0.000623
vt 0.375190 0.843750
vt 0.624746 0.843750
vt 0.781250 0.000623
vt 0.625000 0.385417
vt 0.760417 0.250000
vt 0.239583 0.250000
vt 0.375000 0.385417
vt 0.239583 0.000761
vt 0.375233 0.864583
vt 0.624689 0.864583
vt 0.760417 0.000761
vt 0.375000 0.500000
vt 0.625000 0.500000
vt 0.625000 0.750000
vt 0.375000 0.750000
vt 0.239583 0.000761
vt 0.250000 0.000831
vt 0.250000 0.250000
vt 0.239583 0.250000
vt 0.375233 0.864583
vt 0.624689 0.864583
vt 0.624661 0.875000
vt 0.375254 0.875000
vt 0.750000 0.250000
vt 0.750000 0.000831
vt 0.760417 0.000761
vt 0.760417 0.250000
vt 0.375000 0.375000
vt 0.625000 0.375000
vt 0.625000 0.385417
vt 0.375000 0.385417
vt 0.000000 0.000000
vt 1.000000 0.000000
vt 0.998230 3.147116
vt 0.001355 3.136530
vt 0.375000 0.479167
vt 0.625000 0.479167
vt 0.625000 0.489583
vt 0.375000 0.489583
vt 0.135417 0.000069
vt 0.145833 0.000138
vt 0.145833 0.250000
vt 0.135417 0.250000
vt 0.375021 0.760417
vt 0.624972 0.760417
vt 0.624943 0.770833
vt 0.375042 0.770833
vt 0.854167 0.250000
vt 0.854167 0.000138
vt 0.864583 0.000069
vt 0.864583 0.250000
vt 0.375000 0.468750
vt 0.625000 0.468750
vt 0.156250 0.000208
vt 0.156250 0.250000
vt 0.624915 0.781250
vt 0.375063 0.781250
vt 0.843750 0.250000
vt 0.843750 0.000208
vt 0.375000 0.437500
vt 0.625000 0.437500
vt 0.625000 0.447917
vt 0.375000 0.447917
vt 0.177083 0.000346
vt 0.187500 0.000415
vt 0.187500 0.250000
vt 0.177083 0.250000
vt 0.375106 0.802083
vt 0.624859 0.802083
vt 0.624831 0.812500
vt 0.375127 0.812500
vt 0.812500 0.250000
vt 0.812500 0.000415
vt 0.822917 0.000346
vt 0.822917 0.250000
vt 0.375000 0.416667
vt 0.625000 0.416667
vt 0.625000 0.427083
vt 0.375000 0.427083
vt 0.197916 0.000484
vt 0.208333 0.000554
vt 0.208333 0.250000
vt 0.197917 0.250000
vt 0.375148 0.822916
vt 0.624802 0.822917
vt 0.624774 0.833333
vt 0.375169 0.833333
vt 0.791667 0.250000
vt 0.791667 0.000554
vt 0.802083 0.000484
vt 0.802083 0.250000
vt 0.375000 0.395833
vt 0.625000 0.395833
vt 0.625000 0.406250
vt 0.375000 0.406250
vt 0.218750 0.000623
vt 0.229166 0.000692
vt 0.229167 0.250000
vt 0.218750 0.250000
vt 0.375190 0.843750
vt 0.624746 0.843750
vt 0.624718 0.854166
vt 0.375212 0.854166
vt 0.770833 0.250000
vt 0.770834 0.000692
vt 0.781250 0.000623
vt 0.781250 0.250000
vt 0.125000 0.000000
vt 0.125000 0.250000
vt 0.875000 0.000000
vt 0.875000 0.250000
vt 0.624887 0.791667
vt 0.375085 0.791667
vt 0.166667 0.000277
vt 0.166667 0.250000
vt 0.375000 0.458333
vt 0.625000 0.458333
vt 0.833333 0.250000
vt 0.833333 0.000277
vn 0.007098 0.000549 -0.999975
vn 0.007098 0.000549 -0.999975
vn 0.007098 0.000549 -0.999975
vn 0.007098 0.000549 -0.999975
vn -0.968493 -0.001026 0.249039
vn -0.990395 -0.000558 0.138266
vn -0.990395 -0.000558 0.138266
vn -0.968472 -0.001026 0.249122
vn -0.021234 -0.999765 0.004254
vn -0.021414 -0.999765 0.003407
vn -0.024483 -0.999638 -0.011130
vn -0.024483 -0.999638 -0.011130
vn 0.994578 0.001601 -0.103979
vn 0.994578 0.001601 -0.103979
vn 0.976380 0.001621 -0.216056
vn 0.976370 0.001621 -0.216100
vn -0.022442 0.999713 -0.008401
vn -0.022442 0.999713 -0.008401
vn -0.019073 0.999798 0.006323
vn -0.018876 0.999796 0.007184
vn 0.006476 -0.000742 0.999979
vn 0.006476 -0.000742 0.999979
vn 0.006476 -0.000742 0.999979
vn 0.006476 -0.000742 0.999979
vn 0.004514 0.999839 -0.017384
vn 0.003179 0.999905 -0.013433
vn 0.013650 0.999876 -0.007845
vn 0.014390 0.999888 -0.004145
vn -0.944686 0.009855 0.327828
vn -0.848721 -0.002890 0.528833
vn -0.848464 -0.002953 0.529246
vn -0.944508 0.009839 0.328343
vn 0.033520 -0.999387 -0.010096
vn 0.033563 -0.999384 -0.010223
vn 0.014200 -0.999893 -0.003517
vn 0.018799 -0.999809 -0.005276
vn 0.839375 -0.005486 -0.543525
vn 0.839512 -0.005488 -0.543313
vn 0.946003 -0.002230 -0.324152
vn 0.945818 -0.002240 -0.324688
vn -0.000843 0.999999 -0.001455
vn -0.000851 0.999999 -0.001414
vn -0.806310 -0.006444 0.591458
vn -0.806291 -0.006438 0.591484
vn 0.000837 -0.999999 0.001407
vn 0.000826 -0.999999 0.001448
vn 0.800561 -0.002015 -0.599247
vn 0.800585 -0.002020 -0.599215
vn -0.000174 1.000000 -0.000117
vn -0.000155 1.000000 -0.000092
vn -0.000513 1.000000 -0.000679
vn -0.000518 1.000000 -0.000692
vn -0.770132 -0.002688 0.637879
vn -0.763975 -0.002872 0.645239
vn -0.763975 -0.002872 0.645239
vn -0.770132 -0.002688 0.637879
vn 0.000517 -1.000000 0.000692
vn 0.000513 -1.000000 0.000679
vn 0.000156 -1.000000 0.000094
vn 0.000175 -1.000000 0.000119
vn 0.766749 0.001391 -0.641946
vn 0.766749 0.001391 -0.641945
vn 0.776019 0.001636 -0.630707
vn 0.776019 0.001636 -0.630708
vn -0.000411 0.999995 0.003231
vn -0.000493 0.999994 0.003394
vn 0.000437 1.000000 0.000617
vn 0.000408 1.000000 0.000585
vn -0.760491 -0.002993 0.649341
vn -0.790720 -0.002568 0.612173
vn -0.790679 -0.002568 0.612225
vn -0.760490 -0.002993 0.649343
vn -0.000408 -1.000000 -0.000584
vn -0.000436 -1.000000 -0.000615
vn -0.002383 -0.999997 0.000909
vn -0.002274 -0.999997 0.000785
vn 0.795298 0.001276 -0.606217
vn 0.795346 0.001276 -0.606155
vn 0.760441 0.001279 -0.649406
vn 0.760439 0.001279 -0.649408
vn -0.010153 0.999905 0.009305
vn -0.010419 0.999899 0.009660
vn -0.003065 0.999987 0.004082
vn -0.003060 0.999987 0.004091
vn -0.871203 -0.001756 0.490919
vn -0.930355 -0.001383 0.366657
vn -0.930342 -0.001383 0.366690
vn -0.871137 -0.001757 0.491038
vn -0.005533 -0.999984 0.000773
vn -0.005538 -0.999984 0.000763
vn -0.013016 -0.999895 0.006381
vn -0.012750 -0.999901 0.006015
vn 0.936106 0.001523 -0.351714
vn 0.936126 0.001524 -0.351662
vn 0.874959 0.001345 -0.484195
vn 0.874900 0.001345 -0.484302
vn 0.018041 0.999738 0.014124
vn 0.018041 0.999738 0.014124
vn -0.981097 0.013891 0.193018
vn -0.981097 0.013891 0.193018
vn 0.033308 -0.999400 -0.009463
vn 0.033308 -0.999400 -0.009463
vn 0.987017 0.000936 -0.160615
vn 0.987017 0.000936 -0.160615
vn 0.000730 -0.999999 0.001041
vn 0.000740 -0.999999 0.001053
vn -0.782292 -0.002485 0.622907
vn -0.782278 -0.002485 0.622925
vn -0.000741 0.999999 -0.001054
vn -0.000731 0.999999 -0.001042
vn 0.780711 0.001687 -0.624890
vn 0.780716 0.001687 -0.624884
vn 0.007098 0.000549 -0.999975
vn 0.007098 0.000549 -0.999975
vn 0.007098 0.000549 -0.999975
vn 0.007098 0.000549 -0.999975
vn -0.968493 -0.001024 0.249039
vn -0.990395 -0.000557 0.138266
vn -0.990395 -0.000557 0.138266
vn -0.968472 -0.001024 0.249122
vn -0.021235 -0.999765 0.004254
vn -0.021414 -0.999765 0.003407
vn -0.024483 -0.999638 -0.011130
vn -0.024483 -0.999638 -0.011130
vn 0.994578 0.001594 -0.103979
vn 0.994578 0.001594 -0.103979
vn 0.976380 0.001615 -0.216056
vn 0.976370 0.001615 -0.216100
vn -0.022442 0.999713 -0.008401
vn -0.022442 0.999713 -0.008401
vn -0.019073 0.999798 0.006323
vn -0.018876 0.999796 0.007184
vn 0.006476 -0.000742 0.999979
vn 0.006476 -0.000742 0.999979
vn 0.006476 -0.000742 0.999979
vn 0.006476 -0.000742 0.999979
vn 0.004514 0.999839 -0.017383
vn 0.003179 0.999905 -0.013432
vn 0.013650 0.999876 -0.007845
vn 0.014390 0.999888 -0.004145
vn -0.944686 0.009855 0.327828
vn -0.848721 -0.002888 0.528833
vn -0.848464 -0.002951 0.529245
vn -0.944508 0.009839 0.328343
vn 0.033520 -0.999387 -0.010095
vn 0.033563 -0.999384 -0.010222
vn 0.014200 -0.999893 -0.003516
vn 0.018799 -0.999809 -0.005276
vn 0.839375 -0.005476 -0.543525
vn 0.839512 -0.005477 -0.543313
vn 0.946003 -0.002233 -0.324151
vn 0.945819 -0.002244 -0.324688
vn -0.000843 0.999999 -0.001455
vn -0.000851 0.999999 -0.001413
vn -0.806310 -0.006443 0.591458
vn -0.806291 -0.006437 0.591484
vn 0.000837 -0.999999 0.001407
vn 0.000826 -0.999999 0.001448
vn 0.800561 -0.002003 -0.599248
vn 0.800585 -0.002008 -0.599216
vn -0.000174 1.000000 -0.000117
vn -0.000155 1.000000 -0.000092
vn -0.000513 1.000000 -0.000679
vn -0.000518 1.000000 -0.000692
vn -0.770132 -0.002688 0.637879
vn -0.763976 -0.002875 0.645239
vn -0.763975 -0.002875 0.645239
vn -0.770131 -0.002688 0.637880
vn 0.000517 -1.000000 0.000692
vn 0.000513 -1.000000 0.000679
vn 0.000156 -1.000000 0.000094
vn 0.000175 -1.000000 0.000119
vn 0.766749 0.001387 -0.641946
vn 0.766749 0.001387 -0.641945
vn 0.776019 0.001635 -0.630708
vn 0.776018 0.001634 -0.630708
vn -0.000411 0.999995 0.003231
vn -0.000493 0.999994 0.003394
vn 0.000437 1.000000 0.000617
vn 0.000408 1.000000 0.000585
vn -0.760491 -0.002996 0.649341
vn -0.790720 -0.002573 0.612173
vn -0.790679 -0.002574 0.612225
vn -0.760490 -0.002996 0.649343
vn -0.000408 -1.000000 -0.000584
vn -0.000436 -1.000000 -0.000615
vn -0.002383 -0.999997 0.000909
vn -0.002274 -0.999997 0.000785
vn 0.795298 0.001281 -0.606217
vn 0.795345 0.001281 -0.606155
vn 0.760441 0.001279 -0.649406
vn 0.760439 0.001279 -0.649408
vn -0.010153 0.999905 0.009305
vn -0.010419 0.999899 0.009660
vn -0.003065 0.999987 0.004082
vn -0.003060 0.999987 0.004091
vn -0.871203 -0.001765 0.490919
vn -0.930355 -0.001385 0.366657
vn -0.930342 -0.001385 0.366690
vn -0.871137 -0.001765 0.491038
vn -0.005533 -0.999984 0.000773
vn -0.005538 -0.999984 0.000763
vn -0.013016 -0.999895 0.006381
vn -0.012750 -0.999901 0.006015
vn 0.936106 0.001518 -0.351714
vn 0.936126 0.001518 -0.351662
vn 0.874959 0.001345 -0.484195
vn 0.874900 0.001345 -0.484302
vn 0.018041 0.999738 0.014124
vn 0.018041 0.999738 0.014124
vn -0.981097 0.013890 0.193018
vn -0.981097 0.013890 0.193018
vn 0.033308 -0.999400 -0.009463
vn 0.033308 -0.999400 -0.009463
vn 0.987017 0.000930 -0.160615
vn 0.987017 0.000930 -0.160615
vn 0.000730 -0.999999 0.001041
vn 0.000740 -0.999999 0.001053
vn -0.782292 -0.002484 0.622907
vn -0.782278 -0.002485 0.622925
vn -0.000741 0.999999 -0.001054
vn -0.000731 0.999999 -0.001042
vn 0.780711 0.001689 -0.624890
vn 0.780716 0.001689 -0.624884
s off
g pCube106
usemtl lambert3SG
f 1/1/1 2/2/2 4/4/3 3/3/4
s 1
f 51/105/5 6/11/6 5/9/7 50/103/8
s 2
f 51/106/9 52/107/10 7/13/11 6/12/12
s 3
f 8/16/13 7/14/14 52/108/15 49/102/16
s 4
f 5/10/17 8/15/18 49/101/19 50/104/20
s off
f 8/17/21 5/18/22 6/19/23 7/20/24
s 4
f 10/24/25 9/21/26 29/61/27 30/64/28
s 1
f 31/65/29 11/25/30 10/23/31 30/63/32
s 2
f 31/66/33 32/67/34 12/27/35 11/26/36
s 3
f 9/22/37 12/28/38 32/68/39 29/62/40
s 4
f 35/74/41 36/75/42 9/21/26 10/24/25
s 1
f 11/25/30 34/71/43 35/73/44 10/23/31
s 2
f 11/26/36 12/27/35 33/69/45 34/72/46
s 3
f 36/76/47 33/70/48 12/28/38 9/22/37
s 4
f 18/40/49 17/37/50 37/77/51 38/80/52
s 1
f 39/81/53 19/41/54 18/39/55 38/79/56
s 2
f 39/82/57 40/83/58 20/43/59 19/42/60
s 3
f 17/38/61 20/44/62 40/84/63 37/78/64
s 4
f 22/48/65 21/45/66 41/85/67 42/88/68
s 1
f 43/89/69 23/49/70 22/47/71 42/87/72
s 2
f 43/90/73 44/91/74 24/51/75 23/50/76
s 3
f 21/46/77 24/52/78 44/92/79 41/86/80
s 4
f 26/56/81 25/53/82 45/93/83 46/96/84
s 1
f 47/97/85 27/57/86 26/55/87 46/95/88
s 2
f 47/98/89 48/99/90 28/59/91 27/58/92
s 3
f 25/54/93 28/60/94 48/100/95 45/94/96
s 4
f 30/64/28 29/61/27 2/2/97 1/1/98
s 1
f 3/7/99 31/65/29 30/63/32 1/8/100
s 2
f 3/3/101 4/4/102 32/67/34 31/66/33
s 3
f 29/62/40 32/68/39 4/5/103 2/6/104
s 2
f 34/72/46 33/69/45 16/35/105 15/34/106
s 1
f 35/73/44 34/71/43 15/33/107 14/31/108
s 4
f 14/32/109 13/29/110 36/75/42 35/74/41
s 3
f 13/30/111 16/36/112 33/70/48 36/76/47
s 4
f 38/80/52 37/77/51 13/29/110 14/32/109
s 1
f 15/33/107 39/81/53 38/79/56 14/31/108
s 2
f 15/34/106 16/35/105 40/83/58 39/82/57
s 3
f 37/78/64 40/84/63 16/36/112 13/30/111
s 4
f 42/88/68 41/85/67 17/37/50 18/40/49
s 1
f 19/41/54 43/89/69 42/87/72 18/39/55
s 2
f 19/42/60 20/43/59 44/91/74 43/90/73
s 3
f 41/86/80 44/92/79 20/44/62 17/38/61
s 4
f 46/96/84 45/93/83 21/45/66 22/48/65
s 1
f 23/49/70 47/97/85 46/95/88 22/47/71
s 2
f 23/50/76 24/51/75 48/99/90 47/98/89
s 3
f 45/94/96 48/100/95 24/52/78 21/46/77
s 4
f 50/104/20 49/101/19 25/53/82 26/56/81
s 1
f 27/57/86 51/105/5 50/103/8 26/55/87
s 2
f 27/58/92 28/59/91 52/107/10 51/106/9
s 3
f 49/102/16 52/108/15 28/60/94 25/54/93
s off
f 53/109/113 54/110/114 56/111/115 55/112/116
s 16
f 103/113/117 58/114/118 57/115/119 102/116/120
s 17
f 103/117/121 104/118/122 59/119/123 58/120/124
s 18
f 60/121/125 59/122/126 104/123/127 101/124/128
s 19
f 57/125/129 60/126/130 101/127/131 102/128/132
s off
f 60/129/133 57/130/134 58/131/135 59/132/136
s 19
f 62/133/137 61/134/138 81/135/139 82/136/140
s 16
f 83/137/141 63/138/142 62/139/143 82/140/144
s 17
f 83/141/145 84/142/146 64/143/147 63/144/148
s 18
f 61/145/149 64/146/150 84/147/151 81/148/152
s 19
f 87/149/153 88/150/154 61/134/138 62/133/137
s 16
f 63/138/142 86/151/155 87/152/156 62/139/143
s 17
f 63/144/148 64/143/147 85/153/157 86/154/158
s 18
f 88/155/159 85/156/160 64/146/150 61/145/149
s 19
f 70/157/161 69/158/162 89/159/163 90/160/164
s 16
f 91/161/165 71/162/166 70/163/167 90/164/168
s 17
f 91/165/169 92/166/170 72/167/171 71/168/172
s 18
f 69/169/173 72/170/174 92/171/175 89/172/176
s 19
f 74/173/177 73/174/178 93/175/179 94/176/180
s 16
f 95/177/181 75/178/182 74/179/183 94/180/184
s 17
f 95/181/185 96/182/186 76/183/187 75/184/188
s 18
f 73/185/189 76/186/190 96/187/191 93/188/192
s 19
f 78/189/193 77/190/194 97/191/195 98/192/196
s 16
f 99/193/197 79/194/198 78/195/199 98/196/200
s 17
f 99/197/201 100/198/202 80/199/203 79/200/204
s 18
f 77/201/205 80/202/206 100/203/207 97/204/208
s 19
f 82/136/140 81/135/139 54/110/209 53/109/210
s 16
f 55/205/211 83/137/141 82/140/144 53/206/212
s 17
f 55/112/213 56/111/214 84/142/146 83/141/145
s 18
f 81/148/152 84/147/151 56/207/215 54/208/216
s 17
f 86/154/158 85/153/157 68/209/217 67/210/218
s 16
f 87/152/156 86/151/155 67/211/219 66/212/220
s 19
f 66/213/221 65/214/222 88/150/154 87/149/153
s 18
f 65/215/223 68/216/224 85/156/160 88/155/159
s 19
f 90/160/164 89/159/163 65/214/222 66/213/221
s 16
f 67/211/219 91/161/165 90/164/168 66/212/220
s 17
f 67/210/218 68/209/217 92/166/170 91/165/169
s 18
f 89/172/176 92/171/175 68/216/224 65/215/223
s 19
f 94/176/180 93/175/179 69/158/162 70/157/161
s 16
f 71/162/166 95/177/181 94/180/184 70/163/167
s 17
f 71/168/172 72/167/171 96/182/186 95/181/185
s 18
f 93/188/192 96/187/191 72/170/174 69/169/173
s 19
f 98/192/196 97/191/195 73/174/178 74/173/177
s 16
f 75/178/182 99/193/197 98/196/200 74/179/183
s 17
f 75/184/188 76/183/187 100/198/202 99/197/201
s 18
f 97/204/208 100/203/207 76/186/190 73/185/189
s 19
f 102/128/132 101/127/131 77/190/194 78/189/193
s 16
f 79/194/198 103/113/117 102/116/120 78/195/199
s 17
f 79/200/204 80/199/203 104/118/122 103/117/121
s 18
f 101/124/128 104/123/127 80/202/206 77/201/205
