# This file uses centimeters as units for non-parametric coordinates.

mtllib railCurved1.mtl
g default
v -8.973727 3.166831 -6.797766
v -8.783581 3.166831 -6.799118
v -8.973648 3.044558 -6.797701
v -8.783496 3.044558 -6.799049
v -6.037095 3.168123 -11.709949
v -6.037115 3.045842 -11.709857
v -5.889750 3.045726 -11.708904
v -5.889955 3.168006 -11.708995
v -8.401618 3.168499 -7.910826
v -8.567350 3.168525 -7.971251
v -8.565247 3.046272 -7.970360
v -8.402642 3.046239 -7.911924
v -7.714179 3.170451 -8.830650
v -7.859708 3.170466 -8.934330
v -7.859437 3.048193 -8.934160
v -7.713987 3.048178 -8.830549
v -7.044521 3.171379 -9.654547
v -7.179418 3.171355 -9.755682
v -7.179153 3.049082 -9.755479
v -7.044393 3.049106 -9.654463
v -6.402840 3.170639 -10.405940
v -6.542481 3.170656 -10.501630
v -6.542272 3.048384 -10.501383
v -6.402757 3.048367 -10.405802
v -6.028687 3.169050 -11.082024
v -6.184917 3.169169 -11.135916
v -6.184817 3.046896 -11.135719
v -6.028553 3.046776 -11.081823
v -8.681808 3.152708 -7.424570
v -8.841911 3.158560 -7.459103
v -8.845242 3.036239 -7.460253
v -8.681705 3.048353 -7.424480
v -8.049707 3.047378 -8.405169
v -8.204117 3.047321 -8.485070
v -8.204344 3.169593 -8.485182
v -8.049883 3.169650 -8.405243
v -7.356507 3.171058 -9.271551
v -7.495924 3.171058 -9.374922
v -7.495645 3.048785 -9.374737
v -7.356317 3.048785 -9.271443
v -6.721028 3.171239 -10.030537
v -6.857153 3.171240 -10.131293
v -6.856855 3.048968 -10.131019
v -6.720913 3.048967 -10.030424
v -6.174618 3.169837 -10.747438
v -6.319284 3.168185 -10.826416
v -6.319184 3.049298 -10.826235
v -6.174540 3.047565 -10.747259
v -5.919443 3.168384 -11.426762
v -6.073058 3.161744 -11.452868
v -6.072941 3.053065 -11.452721
v -5.919285 3.046110 -11.426573
v -9.803661 3.166831 -6.797766
v -9.613514 3.166831 -6.799118
v -9.803581 3.044558 -6.797701
v -9.613429 3.044558 -6.799049
v -6.867028 3.168123 -11.709949
v -6.867048 3.045842 -11.709857
v -6.719683 3.045726 -11.708904
v -6.719889 3.168006 -11.708995
v -9.231552 3.168499 -7.910826
v -9.397284 3.168525 -7.971251
v -9.395181 3.046272 -7.970360
v -9.232576 3.046239 -7.911924
v -8.544112 3.170451 -8.830650
v -8.689642 3.170466 -8.934330
v -8.689371 3.048193 -8.934160
v -8.543921 3.048178 -8.830549
v -7.874454 3.171379 -9.654547
v -8.009352 3.171355 -9.755682
v -8.009087 3.049082 -9.755479
v -7.874326 3.049106 -9.654463
v -7.232773 3.170639 -10.405940
v -7.372415 3.170656 -10.501630
v -7.372205 3.048384 -10.501383
v -7.232690 3.048367 -10.405802
v -6.858621 3.169050 -11.082024
v -7.014852 3.169169 -11.135916
v -7.014751 3.046896 -11.135719
v -6.858487 3.046776 -11.081823
v -9.511743 3.152708 -7.424570
v -9.671845 3.158560 -7.459103
v -9.675176 3.036239 -7.460253
v -9.511639 3.048353 -7.424480
v -8.879642 3.047378 -8.405169
v -9.034051 3.047321 -8.485070
v -9.034278 3.169593 -8.485182
v -8.879817 3.169650 -8.405243
v -8.186440 3.171058 -9.271551
v -8.325857 3.171058 -9.374922
v -8.325579 3.048785 -9.374737
v -8.186251 3.048785 -9.271443
v -7.550961 3.171239 -10.030537
v -7.687086 3.171240 -10.131293
v -7.686789 3.048968 -10.131019
v -7.550847 3.048967 -10.030424
v -7.004551 3.169837 -10.747438
v -7.149218 3.168185 -10.826416
v -7.149117 3.049298 -10.826235
v -7.004474 3.047565 -10.747259
v -6.749377 3.168384 -11.426762
v -6.902991 3.161744 -11.452868
v -6.902875 3.053065 -11.452721
v -6.749219 3.046110 -11.426573
vt 0.375000 0.500000
vt 0.625000 0.500000
vt 0.375000 0.750000
vt 0.625000 0.750000
vt 0.875000 0.000000
vt 0.875000 0.250000
vt 0.125000 0.000000
vt 0.125000 0.250000
vt 0.250000 0.250000
vt 0.375000 0.375000
vt 0.250000 0.000831
vt 0.375254 0.875000
vt 0.624661 0.875000
vt 0.750000 0.000831
vt 0.625000 0.375000
vt 0.750000 0.250000
vt 0.000000 0.000000
vt 1.000000 0.000000
vt 0.998230 3.147116
vt 0.001355 3.136530
vt 0.625000 0.479167
vt 0.854167 0.250000
vt 0.145833 0.250000
vt 0.375000 0.479167
vt 0.145833 0.000138
vt 0.375042 0.770833
vt 0.624943 0.770833
vt 0.854167 0.000138
vt 0.625000 0.458333
vt 0.833333 0.250000
vt 0.166667 0.250000
vt 0.375000 0.458333
vt 0.166667 0.000277
vt 0.375085 0.791667
vt 0.624887 0.791667
vt 0.833333 0.000277
vt 0.625000 0.437500
vt 0.812500 0.250000
vt 0.187500 0.250000
vt 0.375000 0.437500
vt 0.187500 0.000415
vt 0.375127 0.812500
vt 0.624831 0.812500
vt 0.812500 0.000415
vt 0.625000 0.416667
vt 0.791667 0.250000
vt 0.208333 0.250000
vt 0.375000 0.416667
vt 0.208333 0.000554
vt 0.375169 0.833333
vt 0.624774 0.833333
vt 0.791667 0.000554
vt 0.625000 0.395833
vt 0.770833 0.250000
vt 0.229167 0.250000
vt 0.375000 0.395833
vt 0.229166 0.000692
vt 0.375212 0.854166
vt 0.624718 0.854166
vt 0.770834 0.000692
vt 0.625000 0.489583
vt 0.864583 0.250000
vt 0.135417 0.250000
vt 0.375000 0.489583
vt 0.135417 0.000069
vt 0.375021 0.760417
vt 0.624972 0.760417
vt 0.864583 0.000069
vt 0.624915 0.781250
vt 0.843750 0.000208
vt 0.156250 0.000208
vt 0.375063 0.781250
vt 0.156250 0.250000
vt 0.375000 0.468750
vt 0.625000 0.468750
vt 0.843750 0.250000
vt 0.625000 0.447917
vt 0.822917 0.250000
vt 0.177083 0.250000
vt 0.375000 0.447917
vt 0.177083 0.000346
vt 0.375106 0.802083
vt 0.624859 0.802083
vt 0.822917 0.000346
vt 0.625000 0.427083
vt 0.802083 0.250000
vt 0.197917 0.250000
vt 0.375000 0.427083
vt 0.197916 0.000484
vt 0.375148 0.822916
vt 0.624802 0.822917
vt 0.802083 0.000484
vt 0.625000 0.406250
vt 0.781250 0.250000
vt 0.218750 0.250000
vt 0.375000 0.406250
vt 0.218750 0.000623
vt 0.375190 0.843750
vt 0.624746 0.843750
vt 0.781250 0.000623
vt 0.625000 0.385417
vt 0.760417 0.250000
vt 0.239583 0.250000
vt 0.375000 0.385417
vt 0.239583 0.000761
vt 0.375233 0.864583
vt 0.624689 0.864583
vt 0.760417 0.000761
vt 0.375000 0.500000
vt 0.375000 0.750000
vt 0.625000 0.750000
vt 0.625000 0.500000
vt 0.239583 0.000761
vt 0.239583 0.250000
vt 0.250000 0.250000
vt 0.250000 0.000831
vt 0.375233 0.864583
vt 0.375254 0.875000
vt 0.624661 0.875000
vt 0.624689 0.864583
vt 0.750000 0.250000
vt 0.760417 0.250000
vt 0.760417 0.000761
vt 0.750000 0.000831
vt 0.375000 0.375000
vt 0.375000 0.385417
vt 0.625000 0.385417
vt 0.625000 0.375000
vt 0.000000 0.000000
vt 0.001355 3.136530
vt 0.998230 3.147116
vt 1.000000 0.000000
vt 0.375000 0.479167
vt 0.375000 0.489583
vt 0.625000 0.489583
vt 0.625000 0.479167
vt 0.135417 0.000069
vt 0.135417 0.250000
vt 0.145833 0.250000
vt 0.145833 0.000138
vt 0.375021 0.760417
vt 0.375042 0.770833
vt 0.624943 0.770833
vt 0.624972 0.760417
vt 0.854167 0.250000
vt 0.864583 0.250000
vt 0.864583 0.000069
vt 0.854167 0.000138
vt 0.375000 0.468750
vt 0.625000 0.468750
vt 0.156250 0.250000
vt 0.156250 0.000208
vt 0.375063 0.781250
vt 0.624915 0.781250
vt 0.843750 0.250000
vt 0.843750 0.000208
vt 0.375000 0.437500
vt 0.375000 0.447917
vt 0.625000 0.447917
vt 0.625000 0.437500
vt 0.177083 0.000346
vt 0.177083 0.250000
vt 0.187500 0.250000
vt 0.187500 0.000415
vt 0.375106 0.802083
vt 0.375127 0.812500
vt 0.624831 0.812500
vt 0.624859 0.802083
vt 0.812500 0.250000
vt 0.822917 0.250000
vt 0.822917 0.000346
vt 0.812500 0.000415
vt 0.375000 0.416667
vt 0.375000 0.427083
vt 0.625000 0.427083
vt 0.625000 0.416667
vt 0.197916 0.000484
vt 0.197917 0.250000
vt 0.208333 0.250000
vt 0.208333 0.000554
vt 0.375148 0.822916
vt 0.375169 0.833333
vt 0.624774 0.833333
vt 0.624802 0.822917
vt 0.791667 0.250000
vt 0.802083 0.250000
vt 0.802083 0.000484
vt 0.791667 0.000554
vt 0.375000 0.395833
vt 0.375000 0.406250
vt 0.625000 0.406250
vt 0.625000 0.395833
vt 0.218750 0.000623
vt 0.218750 0.250000
vt 0.229167 0.250000
vt 0.229166 0.000692
vt 0.375190 0.843750
vt 0.375212 0.854166
vt 0.624718 0.854166
vt 0.624746 0.843750
vt 0.770833 0.250000
vt 0.781250 0.250000
vt 0.781250 0.000623
vt 0.770834 0.000692
vt 0.125000 0.000000
vt 0.125000 0.250000
vt 0.875000 0.250000
vt 0.875000 0.000000
vt 0.375085 0.791667
vt 0.624887 0.791667
vt 0.166667 0.250000
vt 0.166667 0.000277
vt 0.375000 0.458333
vt 0.625000 0.458333
vt 0.833333 0.250000
vt 0.833333 0.000277
vn 0.007101 0.000551 0.999975
vn 0.007101 0.000551 0.999975
vn 0.007101 0.000551 0.999975
vn 0.007101 0.000551 0.999975
vn -0.968493 -0.001030 -0.249038
vn -0.968472 -0.001030 -0.249121
vn -0.990395 -0.000565 -0.138266
vn -0.990395 -0.000565 -0.138266
vn -0.021234 -0.999765 -0.004253
vn -0.024483 -0.999638 0.011131
vn -0.024483 -0.999638 0.011131
vn -0.021413 -0.999765 -0.003406
vn 0.994578 0.001596 0.103978
vn 0.976370 0.001619 0.216100
vn 0.976380 0.001619 0.216056
vn 0.994578 0.001596 0.103978
vn -0.022441 0.999713 0.008401
vn -0.018876 0.999796 -0.007184
vn -0.019073 0.999798 -0.006324
vn -0.022441 0.999713 0.008401
vn 0.006472 -0.000740 -0.999979
vn 0.006472 -0.000740 -0.999979
vn 0.006472 -0.000740 -0.999979
vn 0.006472 -0.000740 -0.999979
vn 0.004514 0.999839 0.017383
vn 0.014390 0.999888 0.004144
vn 0.013650 0.999876 0.007844
vn 0.003179 0.999905 0.013432
vn -0.944686 0.009858 -0.327828
vn -0.944508 0.009842 -0.328342
vn -0.848463 -0.002949 -0.529247
vn -0.848720 -0.002886 -0.528834
vn 0.033521 -0.999387 0.010096
vn 0.018799 -0.999809 0.005276
vn 0.014200 -0.999893 0.003517
vn 0.033563 -0.999384 0.010223
vn 0.839375 -0.005485 0.543525
vn 0.945818 -0.002241 0.324689
vn 0.946002 -0.002230 0.324152
vn 0.839512 -0.005486 0.543314
vn -0.000843 0.999999 0.001455
vn -0.000851 0.999999 0.001414
vn -0.806290 -0.006436 -0.591486
vn -0.806309 -0.006442 -0.591459
vn 0.000826 -0.999999 -0.001447
vn 0.000837 -0.999999 -0.001407
vn 0.800561 -0.002015 0.599248
vn 0.800585 -0.002021 0.599216
vn -0.000174 1.000000 0.000118
vn -0.000518 1.000000 0.000692
vn -0.000513 1.000000 0.000679
vn -0.000155 1.000000 0.000093
vn -0.770132 -0.002689 -0.637879
vn -0.770132 -0.002689 -0.637879
vn -0.763975 -0.002874 -0.645240
vn -0.763975 -0.002874 -0.645240
vn 0.000517 -1.000000 -0.000693
vn 0.000175 -1.000000 -0.000119
vn 0.000156 -1.000000 -0.000094
vn 0.000513 -1.000000 -0.000679
vn 0.766749 0.001389 0.641945
vn 0.776019 0.001635 0.630708
vn 0.776019 0.001635 0.630707
vn 0.766750 0.001389 0.641945
vn -0.000411 0.999995 -0.003231
vn 0.000408 1.000000 -0.000585
vn 0.000437 1.000000 -0.000617
vn -0.000493 0.999994 -0.003394
vn -0.760492 -0.002992 -0.649341
vn -0.760490 -0.002992 -0.649342
vn -0.790680 -0.002566 -0.612225
vn -0.790720 -0.002565 -0.612172
vn -0.000408 -1.000000 0.000584
vn -0.002274 -0.999997 -0.000786
vn -0.002383 -0.999997 -0.000910
vn -0.000436 -1.000000 0.000615
vn 0.795298 0.001274 0.606218
vn 0.760439 0.001277 0.649409
vn 0.760441 0.001277 0.649406
vn 0.795345 0.001274 0.606155
vn -0.010154 0.999905 -0.009306
vn -0.003060 0.999987 -0.004091
vn -0.003065 0.999987 -0.004082
vn -0.010420 0.999899 -0.009660
vn -0.871203 -0.001758 -0.490919
vn -0.871136 -0.001758 -0.491038
vn -0.930342 -0.001385 -0.366690
vn -0.930355 -0.001385 -0.366657
vn -0.005533 -0.999984 -0.000773
vn -0.012749 -0.999901 -0.006015
vn -0.013015 -0.999895 -0.006381
vn -0.005538 -0.999984 -0.000763
vn 0.936106 0.001520 0.351715
vn 0.874900 0.001342 0.484302
vn 0.874959 0.001342 0.484195
vn 0.936126 0.001520 0.351662
vn 0.018042 0.999738 -0.014124
vn 0.018042 0.999738 -0.014124
vn -0.981097 0.013893 -0.193017
vn -0.981097 0.013893 -0.193017
vn 0.033309 -0.999400 0.009464
vn 0.033309 -0.999400 0.009464
vn 0.987017 0.000935 0.160615
vn 0.987017 0.000935 0.160615
vn 0.000740 -0.999999 -0.001054
vn 0.000730 -0.999999 -0.001042
vn -0.782278 -0.002487 -0.622925
vn -0.782292 -0.002487 -0.622907
vn -0.000741 0.999999 0.001054
vn -0.000731 0.999999 0.001042
vn 0.780711 0.001685 0.624890
vn 0.780716 0.001685 0.624884
vn 0.007101 0.000551 0.999975
vn 0.007101 0.000551 0.999975
vn 0.007101 0.000551 0.999975
vn 0.007101 0.000551 0.999975
vn -0.968493 -0.001023 -0.249039
vn -0.968471 -0.001023 -0.249123
vn -0.990395 -0.000557 -0.138267
vn -0.990395 -0.000557 -0.138267
vn -0.021234 -0.999766 -0.004254
vn -0.024483 -0.999638 0.011130
vn -0.024483 -0.999638 0.011130
vn -0.021413 -0.999765 -0.003407
vn 0.994578 0.001601 0.103980
vn 0.976370 0.001617 0.216100
vn 0.976380 0.001617 0.216056
vn 0.994578 0.001601 0.103980
vn -0.022441 0.999713 0.008402
vn -0.018876 0.999796 -0.007184
vn -0.019073 0.999798 -0.006323
vn -0.022441 0.999713 0.008402
vn 0.006472 -0.000740 -0.999979
vn 0.006472 -0.000740 -0.999979
vn 0.006472 -0.000740 -0.999979
vn 0.006472 -0.000740 -0.999979
vn 0.004514 0.999839 0.017382
vn 0.014390 0.999888 0.004144
vn 0.013650 0.999876 0.007843
vn 0.003179 0.999905 0.013431
vn -0.944686 0.009858 -0.327828
vn -0.944508 0.009842 -0.328342
vn -0.848464 -0.002946 -0.529246
vn -0.848721 -0.002883 -0.528833
vn 0.033521 -0.999387 0.010096
vn 0.018798 -0.999809 0.005276
vn 0.014200 -0.999893 0.003517
vn 0.033563 -0.999384 0.010223
vn 0.839375 -0.005480 0.543525
vn 0.945818 -0.002247 0.324688
vn 0.946003 -0.002236 0.324152
vn 0.839512 -0.005481 0.543314
vn -0.000843 0.999999 0.001454
vn -0.000851 0.999999 0.001413
vn -0.806291 -0.006430 -0.591485
vn -0.806310 -0.006436 -0.591458
vn 0.000826 -0.999999 -0.001447
vn 0.000837 -0.999999 -0.001407
vn 0.800561 -0.002004 0.599248
vn 0.800585 -0.002010 0.599216
vn -0.000174 1.000000 0.000118
vn -0.000518 1.000000 0.000692
vn -0.000513 1.000000 0.000679
vn -0.000155 1.000000 0.000092
vn -0.770132 -0.002686 -0.637878
vn -0.770132 -0.002686 -0.637879
vn -0.763974 -0.002872 -0.645240
vn -0.763975 -0.002872 -0.645240
vn 0.000517 -1.000000 -0.000693
vn 0.000175 -1.000000 -0.000119
vn 0.000156 -1.000000 -0.000094
vn 0.000513 -1.000000 -0.000680
vn 0.766749 0.001387 0.641945
vn 0.776019 0.001633 0.630708
vn 0.776019 0.001633 0.630707
vn 0.766750 0.001387 0.641945
vn -0.000411 0.999995 -0.003231
vn 0.000408 1.000000 -0.000585
vn 0.000437 1.000000 -0.000616
vn -0.000493 0.999994 -0.003393
vn -0.760491 -0.002990 -0.649341
vn -0.760490 -0.002990 -0.649343
vn -0.790680 -0.002566 -0.612224
vn -0.790720 -0.002565 -0.612172
vn -0.000408 -1.000000 0.000583
vn -0.002274 -0.999997 -0.000786
vn -0.002383 -0.999997 -0.000910
vn -0.000436 -1.000000 0.000615
vn 0.795298 0.001276 0.606218
vn 0.760439 0.001279 0.649409
vn 0.760441 0.001279 0.649406
vn 0.795345 0.001276 0.606155
vn -0.010154 0.999905 -0.009306
vn -0.003060 0.999987 -0.004091
vn -0.003065 0.999987 -0.004082
vn -0.010420 0.999899 -0.009660
vn -0.871204 -0.001759 -0.490919
vn -0.871137 -0.001760 -0.491037
vn -0.930342 -0.001380 -0.366690
vn -0.930355 -0.001380 -0.366657
vn -0.005533 -0.999984 -0.000774
vn -0.012749 -0.999901 -0.006016
vn -0.013015 -0.999895 -0.006382
vn -0.005538 -0.999984 -0.000764
vn 0.936106 0.001514 0.351715
vn 0.874900 0.001338 0.484301
vn 0.874959 0.001339 0.484194
vn 0.936126 0.001514 0.351661
vn 0.018042 0.999738 -0.014125
vn 0.018042 0.999738 -0.014125
vn -0.981097 0.013893 -0.193017
vn -0.981097 0.013893 -0.193017
vn 0.033309 -0.999400 0.009464
vn 0.033309 -0.999400 0.009464
vn 0.987017 0.000928 0.160614
vn 0.987017 0.000928 0.160614
vn 0.000740 -0.999999 -0.001054
vn 0.000730 -0.999999 -0.001042
vn -0.782278 -0.002483 -0.622925
vn -0.782292 -0.002482 -0.622907
vn -0.000741 0.999999 0.001053
vn -0.000731 0.999999 0.001041
vn 0.780710 0.001689 0.624891
vn 0.780715 0.001689 0.624885
s off
g pCube107
usemtl lambert3SG
f 1/1/1 3/3/2 4/4/3 2/2/4
s 1
f 51/105/5 50/103/6 5/9/7 6/11/8
s 2
f 51/106/9 6/12/10 7/13/11 52/107/12
s 3
f 8/16/13 49/102/14 52/108/15 7/14/16
s 4
f 5/10/17 50/104/18 49/101/19 8/15/20
s off
f 8/17/21 7/20/22 6/19/23 5/18/24
s 4
f 10/24/25 30/64/26 29/61/27 9/21/28
s 1
f 31/65/29 30/63/30 10/23/31 11/25/32
s 2
f 31/66/33 11/26/34 12/27/35 32/67/36
s 3
f 9/22/37 29/62/38 32/68/39 12/28/40
s 4
f 35/74/41 10/24/25 9/21/28 36/75/42
s 1
f 11/25/32 10/23/31 35/73/43 34/71/44
s 2
f 11/26/34 34/72/45 33/69/46 12/27/35
s 3
f 36/76/47 9/22/37 12/28/40 33/70/48
s 4
f 18/40/49 38/80/50 37/77/51 17/37/52
s 1
f 39/81/53 38/79/54 18/39/55 19/41/56
s 2
f 39/82/57 19/42/58 20/43/59 40/83/60
s 3
f 17/38/61 37/78/62 40/84/63 20/44/64
s 4
f 22/48/65 42/88/66 41/85/67 21/45/68
s 1
f 43/89/69 42/87/70 22/47/71 23/49/72
s 2
f 43/90/73 23/50/74 24/51/75 44/91/76
s 3
f 21/46/77 41/86/78 44/92/79 24/52/80
s 4
f 26/56/81 46/96/82 45/93/83 25/53/84
s 1
f 47/97/85 46/95/86 26/55/87 27/57/88
s 2
f 47/98/89 27/58/90 28/59/91 48/99/92
s 3
f 25/54/93 45/94/94 48/100/95 28/60/96
s 4
f 30/64/26 1/1/97 2/2/98 29/61/27
s 1
f 3/7/99 1/8/100 30/63/30 31/65/29
s 2
f 3/3/101 31/66/33 32/67/36 4/4/102
s 3
f 29/62/38 2/6/103 4/5/104 32/68/39
s 2
f 34/72/45 15/34/105 16/35/106 33/69/46
s 1
f 35/73/43 14/31/107 15/33/108 34/71/44
s 4
f 14/32/109 35/74/41 36/75/42 13/29/110
s 3
f 13/30/111 36/76/47 33/70/48 16/36/112
s 4
f 38/80/50 14/32/109 13/29/110 37/77/51
s 1
f 15/33/108 14/31/107 38/79/54 39/81/53
s 2
f 15/34/105 39/82/57 40/83/60 16/35/106
s 3
f 37/78/62 13/30/111 16/36/112 40/84/63
s 4
f 42/88/66 18/40/49 17/37/52 41/85/67
s 1
f 19/41/56 18/39/55 42/87/70 43/89/69
s 2
f 19/42/58 43/90/73 44/91/76 20/43/59
s 3
f 41/86/78 17/38/61 20/44/64 44/92/79
s 4
f 46/96/82 22/48/65 21/45/68 45/93/83
s 1
f 23/49/72 22/47/71 46/95/86 47/97/85
s 2
f 23/50/74 47/98/89 48/99/92 24/51/75
s 3
f 45/94/94 21/46/77 24/52/80 48/100/95
s 4
f 50/104/18 26/56/81 25/53/84 49/101/19
s 1
f 27/57/88 26/55/87 50/103/6 51/105/5
s 2
f 27/58/90 51/106/9 52/107/12 28/59/91
s 3
f 49/102/14 25/54/93 28/60/96 52/108/15
s off
f 53/109/113 55/110/114 56/111/115 54/112/116
s 14
f 103/113/117 102/114/118 57/115/119 58/116/120
s 15
f 103/117/121 58/118/122 59/119/123 104/120/124
s 16
f 60/121/125 101/122/126 104/123/127 59/124/128
s 17
f 57/125/129 102/126/130 101/127/131 60/128/132
s off
f 60/129/133 59/130/134 58/131/135 57/132/136
s 17
f 62/133/137 82/134/138 81/135/139 61/136/140
s 14
f 83/137/141 82/138/142 62/139/143 63/140/144
s 15
f 83/141/145 63/142/146 64/143/147 84/144/148
s 16
f 61/145/149 81/146/150 84/147/151 64/148/152
s 17
f 87/149/153 62/133/137 61/136/140 88/150/154
s 14
f 63/140/144 62/139/143 87/151/155 86/152/156
s 15
f 63/142/146 86/153/157 85/154/158 64/143/147
s 16
f 88/155/159 61/145/149 64/148/152 85/156/160
s 17
f 70/157/161 90/158/162 89/159/163 69/160/164
s 14
f 91/161/165 90/162/166 70/163/167 71/164/168
s 15
f 91/165/169 71/166/170 72/167/171 92/168/172
s 16
f 69/169/173 89/170/174 92/171/175 72/172/176
s 17
f 74/173/177 94/174/178 93/175/179 73/176/180
s 14
f 95/177/181 94/178/182 74/179/183 75/180/184
s 15
f 95/181/185 75/182/186 76/183/187 96/184/188
s 16
f 73/185/189 93/186/190 96/187/191 76/188/192
s 17
f 78/189/193 98/190/194 97/191/195 77/192/196
s 14
f 99/193/197 98/194/198 78/195/199 79/196/200
s 15
f 99/197/201 79/198/202 80/199/203 100/200/204
s 16
f 77/201/205 97/202/206 100/203/207 80/204/208
s 17
f 82/134/138 53/109/209 54/112/210 81/135/139
s 14
f 55/205/211 53/206/212 82/138/142 83/137/141
s 15
f 55/110/213 83/141/145 84/144/148 56/111/214
s 16
f 81/146/150 54/207/215 56/208/216 84/147/151
s 15
f 86/153/157 67/209/217 68/210/218 85/154/158
s 14
f 87/151/155 66/211/219 67/212/220 86/152/156
s 17
f 66/213/221 87/149/153 88/150/154 65/214/222
s 16
f 65/215/223 88/155/159 85/156/160 68/216/224
s 17
f 90/158/162 66/213/221 65/214/222 89/159/163
s 14
f 67/212/220 66/211/219 90/162/166 91/161/165
s 15
f 67/209/217 91/165/169 92/168/172 68/210/218
s 16
f 89/170/174 65/215/223 68/216/224 92/171/175
s 17
f 94/174/178 70/157/161 69/160/164 93/175/179
s 14
f 71/164/168 70/163/167 94/178/182 95/177/181
s 15
f 71/166/170 95/181/185 96/184/188 72/167/171
s 16
f 93/186/190 69/169/173 72/172/176 96/187/191
s 17
f 98/190/194 74/173/177 73/176/180 97/191/195
s 14
f 75/180/184 74/179/183 98/194/198 99/193/197
s 15
f 75/182/186 99/197/201 100/200/204 76/183/187
s 16
f 97/202/206 73/185/189 76/188/192 100/203/207
s 17
f 102/126/130 78/189/193 77/192/196 101/127/131
s 14
f 79/196/200 78/195/199 102/114/118 103/113/117
s 15
f 79/198/202 103/117/121 104/120/124 80/199/203
s 16
f 101/122/126 77/201/205 80/204/208 104/123/127
