# This file uses centimeters as units for non-parametric coordinates.

mtllib railCurved1.mtl
g default
v -8.973727 3.166831 -6.797766
v -8.783581 3.166831 -6.799118
v -8.973648 3.044558 -6.797701
v -8.783496 3.044558 -6.799049
v -6.037095 3.168123 -11.709949
v -6.037115 3.045842 -11.709857
v -5.889750 3.045726 -11.708904
v -5.889955 3.168006 -11.708995
v -8.401618 3.168499 -7.910826
v -8.567350 3.168525 -7.971251
v -8.565247 3.046272 -7.970360
v -8.402642 3.046239 -7.911924
v -7.714179 3.170451 -8.830650
v -7.859708 3.170466 -8.934330
v -7.859437 3.048193 -8.934160
v -7.713987 3.048178 -8.830549
v -7.044521 3.171379 -9.654547
v -7.179418 3.171355 -9.755682
v -7.179153 3.049082 -9.755479
v -7.044393 3.049106 -9.654463
v -6.402840 3.170639 -10.405940
v -6.542481 3.170656 -10.501630
v -6.542272 3.048384 -10.501383
v -6.402757 3.048367 -10.405802
v -6.028687 3.169050 -11.082024
v -6.184917 3.169169 -11.135916
v -6.184817 3.046896 -11.135719
v -6.028553 3.046776 -11.081823
v -8.681808 3.152708 -7.424570
v -8.841911 3.158560 -7.459103
v -8.845242 3.036239 -7.460253
v -8.681705 3.048353 -7.424480
v -8.049707 3.047378 -8.405169
v -8.204117 3.047321 -8.485070
v -8.204344 3.169593 -8.485182
v -8.049883 3.169650 -8.405243
v -7.356507 3.171058 -9.271551
v -7.495924 3.171058 -9.374922
v -7.495645 3.048785 -9.374737
v -7.356317 3.048785 -9.271443
v -6.721028 3.171239 -10.030537
v -6.857153 3.171240 -10.131293
v -6.856855 3.048968 -10.131019
v -6.720913 3.048967 -10.030424
v -6.174618 3.169837 -10.747438
v -6.319284 3.168185 -10.826416
v -6.319184 3.049298 -10.826235
v -6.174540 3.047565 -10.747259
v -5.919443 3.168384 -11.426762
v -6.073058 3.161744 -11.452868
v -6.072941 3.053065 -11.452721
v -5.919285 3.046110 -11.426573
v -9.803661 3.166831 -6.797766
v -9.613514 3.166831 -6.799118
v -9.803581 3.044558 -6.797701
v -9.613429 3.044558 -6.799049
v -6.867028 3.168123 -11.709949
v -6.867048 3.045842 -11.709857
v -6.719683 3.045726 -11.708904
v -6.719889 3.168006 -11.708995
v -9.231552 3.168499 -7.910826
v -9.397284 3.168525 -7.971251
v -9.395181 3.046272 -7.970360
v -9.232576 3.046239 -7.911924
v -8.544112 3.170451 -8.830650
v -8.689642 3.170466 -8.934330
v -8.689371 3.048193 -8.934160
v -8.543921 3.048178 -8.830549
v -7.874454 3.171379 -9.654547
v -8.009352 3.171355 -9.755682
v -8.009087 3.049082 -9.755479
v -7.874326 3.049106 -9.654463
v -7.232773 3.170639 -10.405940
v -7.372415 3.170656 -10.501630
v -7.372205 3.048384 -10.501383
v -7.232690 3.048367 -10.405802
v -6.858621 3.169050 -11.082024
v -7.014852 3.169169 -11.135916
v -7.014751 3.046896 -11.135719
v -6.858487 3.046776 -11.081823
v -9.511743 3.152708 -7.424570
v -9.671845 3.158560 -7.459103
v -9.675176 3.036239 -7.460253
v -9.511639 3.048353 -7.424480
v -8.879642 3.047378 -8.405169
v -9.034051 3.047321 -8.485070
v -9.034278 3.169593 -8.485182
v -8.879817 3.169650 -8.405243
v -8.186440 3.171058 -9.271551
v -8.325857 3.171058 -9.374922
v -8.325579 3.048785 -9.374737
v -8.186251 3.048785 -9.271443
v -7.550961 3.171239 -10.030537
v -7.687086 3.171240 -10.131293
v -7.686789 3.048968 -10.131019
v -7.550847 3.048967 -10.030424
v -7.004551 3.169837 -10.747438
v -7.149218 3.168185 -10.826416
v -7.149117 3.049298 -10.826235
v -7.004474 3.047565 -10.747259
v -6.749377 3.168384 -11.426762
v -6.902991 3.161744 -11.452868
v -6.902875 3.053065 -11.452721
v -6.749219 3.046110 -11.426573
vt 0.375000 0.500000
vt 0.375000 0.750000
vt 0.625000 0.750000
vt 0.625000 0.500000
vt 0.239583 0.000761
vt 0.239583 0.250000
vt 0.250000 0.250000
vt 0.250000 0.000831
vt 0.375233 0.864583
vt 0.375254 0.875000
vt 0.624661 0.875000
vt 0.624689 0.864583
vt 0.750000 0.250000
vt 0.760417 0.250000
vt 0.760417 0.000761
vt 0.750000 0.000831
vt 0.375000 0.375000
vt 0.375000 0.385417
vt 0.625000 0.385417
vt 0.625000 0.375000
vt 0.000000 0.000000
vt 0.001355 3.136530
vt 0.998230 3.147116
vt 1.000000 0.000000
vt 0.375000 0.479167
vt 0.375000 0.489583
vt 0.625000 0.489583
vt 0.625000 0.479167
vt 0.135417 0.000069
vt 0.135417 0.250000
vt 0.145833 0.250000
vt 0.145833 0.000138
vt 0.375021 0.760417
vt 0.375042 0.770833
vt 0.624943 0.770833
vt 0.624972 0.760417
vt 0.854167 0.250000
vt 0.864583 0.250000
vt 0.864583 0.000069
vt 0.854167 0.000138
vt 0.375000 0.468750
vt 0.625000 0.468750
vt 0.156250 0.250000
vt 0.156250 0.000208
vt 0.375063 0.781250
vt 0.624915 0.781250
vt 0.843750 0.250000
vt 0.843750 0.000208
vt 0.375000 0.437500
vt 0.375000 0.447917
vt 0.625000 0.447917
vt 0.625000 0.437500
vt 0.177083 0.000346
vt 0.177083 0.250000
vt 0.187500 0.250000
vt 0.187500 0.000415
vt 0.375106 0.802083
vt 0.375127 0.812500
vt 0.624831 0.812500
vt 0.624859 0.802083
vt 0.812500 0.250000
vt 0.822917 0.250000
vt 0.822917 0.000346
vt 0.812500 0.000415
vt 0.375000 0.416667
vt 0.375000 0.427083
vt 0.625000 0.427083
vt 0.625000 0.416667
vt 0.197916 0.000484
vt 0.197917 0.250000
vt 0.208333 0.250000
vt 0.208333 0.000554
vt 0.375148 0.822916
vt 0.375169 0.833333
vt 0.624774 0.833333
vt 0.624802 0.822917
vt 0.791667 0.250000
vt 0.802083 0.250000
vt 0.802083 0.000484
vt 0.791667 0.000554
vt 0.375000 0.395833
vt 0.375000 0.406250
vt 0.625000 0.406250
vt 0.625000 0.395833
vt 0.218750 0.000623
vt 0.218750 0.250000
vt 0.229167 0.250000
vt 0.229166 0.000692
vt 0.375190 0.843750
vt 0.375212 0.854166
vt 0.624718 0.854166
vt 0.624746 0.843750
vt 0.770833 0.250000
vt 0.781250 0.250000
vt 0.781250 0.000623
vt 0.770834 0.000692
vt 0.125000 0.000000
vt 0.125000 0.250000
vt 0.875000 0.250000
vt 0.875000 0.000000
vt 0.375085 0.791667
vt 0.624887 0.791667
vt 0.166667 0.250000
vt 0.166667 0.000277
vt 0.375000 0.458333
vt 0.625000 0.458333
vt 0.833333 0.250000
vt 0.833333 0.000277
vt 0.375000 0.500000
vt 0.375000 0.750000
vt 0.625000 0.750000
vt 0.625000 0.500000
vt 0.239583 0.000761
vt 0.239583 0.250000
vt 0.250000 0.250000
vt 0.250000 0.000831
vt 0.375233 0.864583
vt 0.375254 0.875000
vt 0.624661 0.875000
vt 0.624689 0.864583
vt 0.750000 0.250000
vt 0.760417 0.250000
vt 0.760417 0.000761
vt 0.750000 0.000831
vt 0.375000 0.375000
vt 0.375000 0.385417
vt 0.625000 0.385417
vt 0.625000 0.375000
vt 0.000000 0.000000
vt 0.001355 3.136530
vt 0.998230 3.147116
vt 1.000000 0.000000
vt 0.375000 0.479167
vt 0.375000 0.489583
vt 0.625000 0.489583
vt 0.625000 0.479167
vt 0.135417 0.000069
vt 0.135417 0.250000
vt 0.145833 0.250000
vt 0.145833 0.000138
vt 0.375021 0.760417
vt 0.375042 0.770833
vt 0.624943 0.770833
vt 0.624972 0.760417
vt 0.854167 0.250000
vt 0.864583 0.250000
vt 0.864583 0.000069
vt 0.854167 0.000138
vt 0.375000 0.468750
vt 0.625000 0.468750
vt 0.156250 0.250000
vt 0.156250 0.000208
vt 0.375063 0.781250
vt 0.624915 0.781250
vt 0.843750 0.250000
vt 0.843750 0.000208
vt 0.375000 0.437500
vt 0.375000 0.447917
vt 0.625000 0.447917
vt 0.625000 0.437500
vt 0.177083 0.000346
vt 0.177083 0.250000
vt 0.187500 0.250000
vt 0.187500 0.000415
vt 0.375106 0.802083
vt 0.375127 0.812500
vt 0.624831 0.812500
vt 0.624859 0.802083
vt 0.812500 0.250000
vt 0.822917 0.250000
vt 0.822917 0.000346
vt 0.812500 0.000415
vt 0.375000 0.416667
vt 0.375000 0.427083
vt 0.625000 0.427083
vt 0.625000 0.416667
vt 0.197916 0.000484
vt 0.197917 0.250000
vt 0.208333 0.250000
vt 0.208333 0.000554
vt 0.375148 0.822916
vt 0.375169 0.833333
vt 0.624774 0.833333
vt 0.624802 0.822917
vt 0.791667 0.250000
vt 0.802083 0.250000
vt 0.802083 0.000484
vt 0.791667 0.000554
vt 0.375000 0.395833
vt 0.375000 0.406250
vt 0.625000 0.406250
vt 0.625000 0.395833
vt 0.218750 0.000623
vt 0.218750 0.250000
vt 0.229167 0.250000
vt 0.229166 0.000692
vt 0.375190 0.843750
vt 0.375212 0.854166
vt 0.624718 0.854166
vt 0.624746 0.843750
vt 0.770833 0.250000
vt 0.781250 0.250000
vt 0.781250 0.000623
vt 0.770834 0.000692
vt 0.125000 0.000000
vt 0.125000 0.250000
vt 0.875000 0.250000
vt 0.875000 0.000000
vt 0.375085 0.791667
vt 0.624887 0.791667
vt 0.166667 0.250000
vt 0.166667 0.000277
vt 0.375000 0.458333
vt 0.625000 0.458333
vt 0.833333 0.250000
vt 0.833333 0.000277
vn 0.007101 0.000551 0.999975
vn 0.007101 0.000551 0.999975
vn 0.007101 0.000551 0.999975
vn 0.007101 0.000551 0.999975
vn -0.968493 -0.001030 -0.249038
vn -0.968472 -0.001030 -0.249121
vn -0.990395 -0.000565 -0.138266
vn -0.990395 -0.000565 -0.138266
vn -0.021234 -0.999765 -0.004253
vn -0.024483 -0.999638 0.011131
vn -0.024483 -0.999638 0.011131
vn -0.021413 -0.999765 -0.003406
vn 0.994578 0.001596 0.103978
vn 0.976370 0.001619 0.216100
vn 0.976380 0.001619 0.216056
vn 0.994578 0.001596 0.103978
vn -0.022441 0.999713 0.008401
vn -0.018876 0.999796 -0.007184
vn -0.019073 0.999798 -0.006324
vn -0.022441 0.999713 0.008401
vn 0.006472 -0.000740 -0.999979
vn 0.006472 -0.000740 -0.999979
vn 0.006472 -0.000740 -0.999979
vn 0.006472 -0.000740 -0.999979
vn 0.004514 0.999839 0.017383
vn 0.014390 0.999888 0.004144
vn 0.013650 0.999876 0.007844
vn 0.003179 0.999905 0.013432
vn -0.944686 0.009858 -0.327828
vn -0.944508 0.009842 -0.328342
vn -0.848463 -0.002949 -0.529247
vn -0.848720 -0.002886 -0.528834
vn 0.033521 -0.999387 0.010096
vn 0.018799 -0.999809 0.005276
vn 0.014200 -0.999893 0.003517
vn 0.033563 -0.999384 0.010223
vn 0.839375 -0.005485 0.543525
vn 0.945818 -0.002241 0.324689
vn 0.946002 -0.002230 0.324152
vn 0.839512 -0.005486 0.543314
vn -0.000843 0.999999 0.001455
vn 0.004514 0.999839 0.017383
vn 0.003179 0.999905 0.013432
vn -0.000851 0.999999 0.001414
vn -0.848720 -0.002886 -0.528834
vn -0.848463 -0.002949 -0.529247
vn -0.806290 -0.006436 -0.591486
vn -0.806309 -0.006442 -0.591459
vn 0.018799 -0.999809 0.005276
vn 0.000826 -0.999999 -0.001447
vn 0.000837 -0.999999 -0.001407
vn 0.014200 -0.999893 0.003517
vn 0.800561 -0.002015 0.599248
vn 0.839375 -0.005485 0.543525
vn 0.839512 -0.005486 0.543314
vn 0.800585 -0.002021 0.599216
vn -0.000174 1.000000 0.000118
vn -0.000518 1.000000 0.000692
vn -0.000513 1.000000 0.000679
vn -0.000155 1.000000 0.000093
vn -0.770132 -0.002689 -0.637879
vn -0.770132 -0.002689 -0.637879
vn -0.763975 -0.002874 -0.645240
vn -0.763975 -0.002874 -0.645240
vn 0.000517 -1.000000 -0.000693
vn 0.000175 -1.000000 -0.000119
vn 0.000156 -1.000000 -0.000094
vn 0.000513 -1.000000 -0.000679
vn 0.766749 0.001389 0.641945
vn 0.776019 0.001635 0.630708
vn 0.776019 0.001635 0.630707
vn 0.766750 0.001389 0.641945
vn -0.000411 0.999995 -0.003231
vn 0.000408 1.000000 -0.000585
vn 0.000437 1.000000 -0.000617
vn -0.000493 0.999994 -0.003394
vn -0.760492 -0.002992 -0.649341
vn -0.760490 -0.002992 -0.649342
vn -0.790680 -0.002566 -0.612225
vn -0.790720 -0.002565 -0.612172
vn -0.000408 -1.000000 0.000584
vn -0.002274 -0.999997 -0.000786
vn -0.002383 -0.999997 -0.000910
vn -0.000436 -1.000000 0.000615
vn 0.795298 0.001274 0.606218
vn 0.760439 0.001277 0.649409
vn 0.760441 0.001277 0.649406
vn 0.795345 0.001274 0.606155
vn -0.010154 0.999905 -0.009306
vn -0.003060 0.999987 -0.004091
vn -0.003065 0.999987 -0.004082
vn -0.010420 0.999899 -0.009660
vn -0.871203 -0.001758 -0.490919
vn -0.871136 -0.001758 -0.491038
vn -0.930342 -0.001385 -0.366690
vn -0.930355 -0.001385 -0.366657
vn -0.005533 -0.999984 -0.000773
vn -0.012749 -0.999901 -0.006015
vn -0.013015 -0.999895 -0.006381
vn -0.005538 -0.999984 -0.000763
vn 0.936106 0.001520 0.351715
vn 0.874900 0.001342 0.484302
vn 0.874959 0.001342 0.484195
vn 0.936126 0.001520 0.351662
vn 0.014390 0.999888 0.004144
vn 0.018042 0.999738 -0.014124
vn 0.018042 0.999738 -0.014124
vn 0.013650 0.999876 0.007844
vn -0.981097 0.013893 -0.193017
vn -0.981097 0.013893 -0.193017
vn -0.944508 0.009842 -0.328342
vn -0.944686 0.009858 -0.327828
vn 0.033309 -0.999400 0.009464
vn 0.033521 -0.999387 0.010096
vn 0.033563 -0.999384 0.010223
vn 0.033309 -0.999400 0.009464
vn 0.945818 -0.002241 0.324689
vn 0.987017 0.000935 0.160615
vn 0.987017 0.000935 0.160615
vn 0.946002 -0.002230 0.324152
vn 0.000826 -0.999999 -0.001447
vn 0.000740 -0.999999 -0.001054
vn 0.000730 -0.999999 -0.001042
vn 0.000837 -0.999999 -0.001407
vn -0.806290 -0.006436 -0.591486
vn -0.782278 -0.002487 -0.622925
vn -0.782292 -0.002487 -0.622907
vn -0.806309 -0.006442 -0.591459
vn -0.000741 0.999999 0.001054
vn -0.000843 0.999999 0.001455
vn -0.000851 0.999999 0.001414
vn -0.000731 0.999999 0.001042
vn 0.780711 0.001685 0.624890
vn 0.800561 -0.002015 0.599248
vn 0.800585 -0.002021 0.599216
vn 0.780716 0.001685 0.624884
vn -0.000518 1.000000 0.000692
vn -0.000741 0.999999 0.001054
vn -0.000731 0.999999 0.001042
vn -0.000513 1.000000 0.000679
vn -0.782292 -0.002487 -0.622907
vn -0.782278 -0.002487 -0.622925
vn -0.770132 -0.002689 -0.637879
vn -0.770132 -0.002689 -0.637879
vn 0.000740 -0.999999 -0.001054
vn 0.000517 -1.000000 -0.000693
vn 0.000513 -1.000000 -0.000679
vn 0.000730 -0.999999 -0.001042
vn 0.776019 0.001635 0.630708
vn 0.780711 0.001685 0.624890
vn 0.780716 0.001685 0.624884
vn 0.776019 0.001635 0.630707
vn 0.000408 1.000000 -0.000585
vn -0.000174 1.000000 0.000118
vn -0.000155 1.000000 0.000093
vn 0.000437 1.000000 -0.000617
vn -0.763975 -0.002874 -0.645240
vn -0.763975 -0.002874 -0.645240
vn -0.760490 -0.002992 -0.649342
vn -0.760492 -0.002992 -0.649341
vn 0.000175 -1.000000 -0.000119
vn -0.000408 -1.000000 0.000584
vn -0.000436 -1.000000 0.000615
vn 0.000156 -1.000000 -0.000094
vn 0.760439 0.001277 0.649409
vn 0.766749 0.001389 0.641945
vn 0.766750 0.001389 0.641945
vn 0.760441 0.001277 0.649406
vn -0.003060 0.999987 -0.004091
vn -0.000411 0.999995 -0.003231
vn -0.000493 0.999994 -0.003394
vn -0.003065 0.999987 -0.004082
vn -0.790720 -0.002565 -0.612172
vn -0.790680 -0.002566 -0.612225
vn -0.871136 -0.001758 -0.491038
vn -0.871203 -0.001758 -0.490919
vn -0.002274 -0.999997 -0.000786
vn -0.005533 -0.999984 -0.000773
vn -0.005538 -0.999984 -0.000763
vn -0.002383 -0.999997 -0.000910
vn 0.874900 0.001342 0.484302
vn 0.795298 0.001274 0.606218
vn 0.795345 0.001274 0.606155
vn 0.874959 0.001342 0.484195
vn -0.018876 0.999796 -0.007184
vn -0.010154 0.999905 -0.009306
vn -0.010420 0.999899 -0.009660
vn -0.019073 0.999798 -0.006324
vn -0.930355 -0.001385 -0.366657
vn -0.930342 -0.001385 -0.366690
vn -0.968472 -0.001030 -0.249121
vn -0.968493 -0.001030 -0.249038
vn -0.012749 -0.999901 -0.006015
vn -0.021234 -0.999765 -0.004253
vn -0.021413 -0.999765 -0.003406
vn -0.013015 -0.999895 -0.006381
vn 0.976370 0.001619 0.216100
vn 0.936106 0.001520 0.351715
vn 0.936126 0.001520 0.351662
vn 0.976380 0.001619 0.216056
vn 0.007101 0.000551 0.999975
vn 0.007101 0.000551 0.999975
vn 0.007101 0.000551 0.999975
vn 0.007101 0.000551 0.999975
vn -0.968493 -0.001023 -0.249039
vn -0.968471 -0.001023 -0.249123
vn -0.990395 -0.000557 -0.138267
vn -0.990395 -0.000557 -0.138267
vn -0.021234 -0.999766 -0.004254
vn -0.024483 -0.999638 0.011130
vn -0.024483 -0.999638 0.011130
vn -0.021413 -0.999765 -0.003407
vn 0.994578 0.001601 0.103980
vn 0.976370 0.001617 0.216100
vn 0.976380 0.001617 0.216056
vn 0.994578 0.001601 0.103980
vn -0.022441 0.999713 0.008402
vn -0.018876 0.999796 -0.007184
vn -0.019073 0.999798 -0.006323
vn -0.022441 0.999713 0.008402
vn 0.006472 -0.000740 -0.999979
vn 0.006472 -0.000740 -0.999979
vn 0.006472 -0.000740 -0.999979
vn 0.006472 -0.000740 -0.999979
vn 0.004514 0.999839 0.017382
vn 0.014390 0.999888 0.004144
vn 0.013650 0.999876 0.007843
vn 0.003179 0.999905 0.013431
vn -0.944686 0.009858 -0.327828
vn -0.944508 0.009842 -0.328342
vn -0.848464 -0.002946 -0.529246
vn -0.848721 -0.002883 -0.528833
vn 0.033521 -0.999387 0.010096
vn 0.018798 -0.999809 0.005276
vn 0.014200 -0.999893 0.003517
vn 0.033563 -0.999384 0.010223
vn 0.839375 -0.005480 0.543525
vn 0.945818 -0.002247 0.324688
vn 0.946002 -0.002236 0.324152
vn 0.839512 -0.005481 0.543314
vn -0.000843 0.999999 0.001454
vn 0.004514 0.999839 0.017382
vn 0.003179 0.999905 0.013431
vn -0.000851 0.999999 0.001413
vn -0.848721 -0.002883 -0.528833
vn -0.848464 -0.002946 -0.529246
vn -0.806291 -0.006430 -0.591485
vn -0.806310 -0.006436 -0.591458
vn 0.018798 -0.999809 0.005276
vn 0.000826 -0.999999 -0.001447
vn 0.000837 -0.999999 -0.001407
vn 0.014200 -0.999893 0.003517
vn 0.800561 -0.002004 0.599248
vn 0.839375 -0.005480 0.543525
vn 0.839512 -0.005481 0.543314
vn 0.800585 -0.002010 0.599216
vn -0.000174 1.000000 0.000118
vn -0.000518 1.000000 0.000692
vn -0.000513 1.000000 0.000679
vn -0.000155 1.000000 0.000092
vn -0.770132 -0.002686 -0.637878
vn -0.770132 -0.002686 -0.637879
vn -0.763974 -0.002872 -0.645240
vn -0.763975 -0.002872 -0.645240
vn 0.000517 -1.000000 -0.000693
vn 0.000175 -1.000000 -0.000119
vn 0.000156 -1.000000 -0.000094
vn 0.000513 -1.000000 -0.000680
vn 0.766749 0.001387 0.641945
vn 0.776019 0.001633 0.630708
vn 0.776019 0.001633 0.630707
vn 0.766750 0.001387 0.641945
vn -0.000411 0.999995 -0.003231
vn 0.000408 1.000000 -0.000585
vn 0.000437 1.000000 -0.000616
vn -0.000493 0.999994 -0.003393
vn -0.760491 -0.002990 -0.649341
vn -0.760490 -0.002990 -0.649343
vn -0.790680 -0.002566 -0.612224
vn -0.790720 -0.002565 -0.612172
vn -0.000408 -1.000000 0.000583
vn -0.002274 -0.999997 -0.000786
vn -0.002383 -0.999997 -0.000910
vn -0.000436 -1.000000 0.000615
vn 0.795298 0.001276 0.606218
vn 0.760439 0.001279 0.649409
vn 0.760441 0.001279 0.649406
vn 0.795345 0.001276 0.606155
vn -0.010154 0.999905 -0.009306
vn -0.003060 0.999987 -0.004091
vn -0.003065 0.999987 -0.004082
vn -0.010420 0.999899 -0.009660
vn -0.871204 -0.001759 -0.490919
vn -0.871137 -0.001760 -0.491037
vn -0.930342 -0.001380 -0.366690
vn -0.930355 -0.001380 -0.366657
vn -0.005533 -0.999984 -0.000774
vn -0.012749 -0.999901 -0.006016
vn -0.013015 -0.999895 -0.006382
vn -0.005538 -0.999984 -0.000764
vn 0.936106 0.001514 0.351715
vn 0.874900 0.001338 0.484301
vn 0.874960 0.001339 0.484194
vn 0.936126 0.001514 0.351661
vn 0.014390 0.999888 0.004144
vn 0.018042 0.999738 -0.014125
vn 0.018042 0.999738 -0.014125
vn 0.013650 0.999876 0.007843
vn -0.981097 0.013893 -0.193017
vn -0.981097 0.013893 -0.193017
vn -0.944508 0.009842 -0.328342
vn -0.944686 0.009858 -0.327828
vn 0.033309 -0.999400 0.009464
vn 0.033521 -0.999387 0.010096
vn 0.033563 -0.999384 0.010223
vn 0.033309 -0.999400 0.009464
vn 0.945818 -0.002247 0.324688
vn 0.987017 0.000928 0.160614
vn 0.987017 0.000928 0.160614
vn 0.946002 -0.002236 0.324152
vn 0.000826 -0.999999 -0.001447
vn 0.000740 -0.999999 -0.001054
vn 0.000730 -0.999999 -0.001042
vn 0.000837 -0.999999 -0.001407
vn -0.806291 -0.006430 -0.591485
vn -0.782278 -0.002483 -0.622925
vn -0.782292 -0.002482 -0.622907
vn -0.806310 -0.006436 -0.591458
vn -0.000741 0.999999 0.001053
vn -0.000843 0.999999 0.001454
vn -0.000851 0.999999 0.001413
vn -0.000731 0.999999 0.001041
vn 0.780710 0.001689 0.624891
vn 0.800561 -0.002004 0.599248
vn 0.800585 -0.002010 0.599216
vn 0.780715 0.001689 0.624885
vn -0.000518 1.000000 0.000692
vn -0.000741 0.999999 0.001053
vn -0.000731 0.999999 0.001041
vn -0.000513 1.000000 0.000679
vn -0.782292 -0.002482 -0.622907
vn -0.782278 -0.002483 -0.622925
vn -0.770132 -0.002686 -0.637879
vn -0.770132 -0.002686 -0.637878
vn 0.000740 -0.999999 -0.001054
vn 0.000517 -1.000000 -0.000693
vn 0.000513 -1.000000 -0.000680
vn 0.000730 -0.999999 -0.001042
vn 0.776019 0.001633 0.630708
vn 0.780710 0.001689 0.624891
vn 0.780715 0.001689 0.624885
vn 0.776019 0.001633 0.630707
vn 0.000408 1.000000 -0.000585
vn -0.000174 1.000000 0.000118
vn -0.000155 1.000000 0.000092
vn 0.000437 1.000000 -0.000616
vn -0.763975 -0.002872 -0.645240
vn -0.763974 -0.002872 -0.645240
vn -0.760490 -0.002990 -0.649343
vn -0.760491 -0.002990 -0.649341
vn 0.000175 -1.000000 -0.000119
vn -0.000408 -1.000000 0.000583
vn -0.000436 -1.000000 0.000615
vn 0.000156 -1.000000 -0.000094
vn 0.760439 0.001279 0.649409
vn 0.766749 0.001387 0.641945
vn 0.766750 0.001387 0.641945
vn 0.760441 0.001279 0.649406
vn -0.003060 0.999987 -0.004091
vn -0.000411 0.999995 -0.003231
vn -0.000493 0.999994 -0.003393
vn -0.003065 0.999987 -0.004082
vn -0.790720 -0.002565 -0.612172
vn -0.790680 -0.002566 -0.612224
vn -0.871137 -0.001760 -0.491037
vn -0.871204 -0.001759 -0.490919
vn -0.002274 -0.999997 -0.000786
vn -0.005533 -0.999984 -0.000774
vn -0.005538 -0.999984 -0.000764
vn -0.002383 -0.999997 -0.000910
vn 0.874900 0.001338 0.484301
vn 0.795298 0.001276 0.606218
vn 0.795345 0.001276 0.606155
vn 0.874960 0.001339 0.484194
vn -0.018876 0.999796 -0.007184
vn -0.010154 0.999905 -0.009306
vn -0.010420 0.999899 -0.009660
vn -0.019073 0.999798 -0.006323
vn -0.930355 -0.001380 -0.366657
vn -0.930342 -0.001380 -0.366690
vn -0.968471 -0.001023 -0.249123
vn -0.968493 -0.001023 -0.249039
vn -0.012749 -0.999901 -0.006016
vn -0.021234 -0.999766 -0.004254
vn -0.021413 -0.999765 -0.003407
vn -0.013015 -0.999895 -0.006382
vn 0.976370 0.001617 0.216100
vn 0.936106 0.001514 0.351715
vn 0.936126 0.001514 0.351661
vn 0.976380 0.001617 0.216056
s off
g railCurved2:pCube107
usemtl railCurved2:lambert3SG
f 1/1/1 3/2/2 4/3/3 2/4/4
f 51/5/5 50/6/6 5/7/7 6/8/8
f 51/9/9 6/10/10 7/11/11 52/12/12
f 8/13/13 49/14/14 52/15/15 7/16/16
f 5/17/17 50/18/18 49/19/19 8/20/20
f 8/21/21 7/22/22 6/23/23 5/24/24
f 10/25/25 30/26/26 29/27/27 9/28/28
f 31/29/29 30/30/30 10/31/31 11/32/32
f 31/33/33 11/34/34 12/35/35 32/36/36
f 9/37/37 29/38/38 32/39/39 12/40/40
f 35/41/41 10/25/42 9/28/43 36/42/44
f 11/32/45 10/31/46 35/43/47 34/44/48
f 11/34/49 34/45/50 33/46/51 12/35/52
f 36/47/53 9/37/54 12/40/55 33/48/56
f 18/49/57 38/50/58 37/51/59 17/52/60
f 39/53/61 38/54/62 18/55/63 19/56/64
f 39/57/65 19/58/66 20/59/67 40/60/68
f 17/61/69 37/62/70 40/63/71 20/64/72
f 22/65/73 42/66/74 41/67/75 21/68/76
f 43/69/77 42/70/78 22/71/79 23/72/80
f 43/73/81 23/74/82 24/75/83 44/76/84
f 21/77/85 41/78/86 44/79/87 24/80/88
f 26/81/89 46/82/90 45/83/91 25/84/92
f 47/85/93 46/86/94 26/87/95 27/88/96
f 47/89/97 27/90/98 28/91/99 48/92/100
f 25/93/101 45/94/102 48/95/103 28/96/104
f 30/26/105 1/1/106 2/4/107 29/27/108
f 3/97/109 1/98/110 30/30/111 31/29/112
f 3/2/113 31/33/114 32/36/115 4/3/116
f 29/38/117 2/99/118 4/100/119 32/39/120
f 34/45/121 15/101/122 16/102/123 33/46/124
f 35/43/125 14/103/126 15/104/127 34/44/128
f 14/105/129 35/41/130 36/42/131 13/106/132
f 13/107/133 36/47/134 33/48/135 16/108/136
f 38/50/137 14/105/138 13/106/139 37/51/140
f 15/104/141 14/103/142 38/54/143 39/53/144
f 15/101/145 39/57/146 40/60/147 16/102/148
f 37/62/149 13/107/150 16/108/151 40/63/152
f 42/66/153 18/49/154 17/52/155 41/67/156
f 19/56/157 18/55/158 42/70/159 43/69/160
f 19/58/161 43/73/162 44/76/163 20/59/164
f 41/78/165 17/61/166 20/64/167 44/79/168
f 46/82/169 22/65/170 21/68/171 45/83/172
f 23/72/173 22/71/174 46/86/175 47/85/176
f 23/74/177 47/89/178 48/92/179 24/75/180
f 45/94/181 21/77/182 24/80/183 48/95/184
f 50/18/185 26/81/186 25/84/187 49/19/188
f 27/88/189 26/87/190 50/6/191 51/5/192
f 27/90/193 51/9/194 52/12/195 28/91/196
f 49/14/197 25/93/198 28/96/199 52/15/200
f 53/109/201 55/110/202 56/111/203 54/112/204
f 103/113/205 102/114/206 57/115/207 58/116/208
f 103/117/209 58/118/210 59/119/211 104/120/212
f 60/121/213 101/122/214 104/123/215 59/124/216
f 57/125/217 102/126/218 101/127/219 60/128/220
f 60/129/221 59/130/222 58/131/223 57/132/224
f 62/133/225 82/134/226 81/135/227 61/136/228
f 83/137/229 82/138/230 62/139/231 63/140/232
f 83/141/233 63/142/234 64/143/235 84/144/236
f 61/145/237 81/146/238 84/147/239 64/148/240
f 87/149/241 62/133/242 61/136/243 88/150/244
f 63/140/245 62/139/246 87/151/247 86/152/248
f 63/142/249 86/153/250 85/154/251 64/143/252
f 88/155/253 61/145/254 64/148/255 85/156/256
f 70/157/257 90/158/258 89/159/259 69/160/260
f 91/161/261 90/162/262 70/163/263 71/164/264
f 91/165/265 71/166/266 72/167/267 92/168/268
f 69/169/269 89/170/270 92/171/271 72/172/272
f 74/173/273 94/174/274 93/175/275 73/176/276
f 95/177/277 94/178/278 74/179/279 75/180/280
f 95/181/281 75/182/282 76/183/283 96/184/284
f 73/185/285 93/186/286 96/187/287 76/188/288
f 78/189/289 98/190/290 97/191/291 77/192/292
f 99/193/293 98/194/294 78/195/295 79/196/296
f 99/197/297 79/198/298 80/199/299 100/200/300
f 77/201/301 97/202/302 100/203/303 80/204/304
f 82/134/305 53/109/306 54/112/307 81/135/308
f 55/205/309 53/206/310 82/138/311 83/137/312
f 55/110/313 83/141/314 84/144/315 56/111/316
f 81/146/317 54/207/318 56/208/319 84/147/320
f 86/153/321 67/209/322 68/210/323 85/154/324
f 87/151/325 66/211/326 67/212/327 86/152/328
f 66/213/329 87/149/330 88/150/331 65/214/332
f 65/215/333 88/155/334 85/156/335 68/216/336
f 90/158/337 66/213/338 65/214/339 89/159/340
f 67/212/341 66/211/342 90/162/343 91/161/344
f 67/209/345 91/165/346 92/168/347 68/210/348
f 89/170/349 65/215/350 68/216/351 92/171/352
f 94/174/353 70/157/354 69/160/355 93/175/356
f 71/164/357 70/163/358 94/178/359 95/177/360
f 71/166/361 95/181/362 96/184/363 72/167/364
f 93/186/365 69/169/366 72/172/367 96/187/368
f 98/190/369 74/173/370 73/176/371 97/191/372
f 75/180/373 74/179/374 98/194/375 99/193/376
f 75/182/377 99/197/378 100/200/379 76/183/380
f 97/202/381 73/185/382 76/188/383 100/203/384
f 102/126/385 78/189/386 77/192/387 101/127/388
f 79/196/389 78/195/390 102/114/391 103/113/392
f 79/198/393 103/117/394 104/120/395 80/199/396
f 101/122/397 77/201/398 80/204/399 104/123/400
