# This file uses centimeters as units for non-parametric coordinates.

mtllib railCurved2.mtl
g default
v -8.973727 3.166831 -6.770011
v -8.783581 3.166831 -6.768659
v -8.973648 3.044558 -6.770075
v -8.783496 3.044558 -6.768728
v -6.037095 3.168123 -1.857828
v -6.037115 3.045842 -1.857920
v -5.889750 3.045726 -1.858873
v -5.889955 3.168006 -1.858782
v -8.401618 3.168499 -5.656951
v -8.567350 3.168525 -5.596526
v -8.565247 3.046272 -5.597417
v -8.402642 3.046239 -5.655853
v -7.714179 3.170451 -4.737126
v -7.859708 3.170466 -4.633447
v -7.859437 3.048193 -4.633616
v -7.713987 3.048178 -4.737227
v -7.044521 3.171379 -3.913230
v -7.179418 3.171355 -3.812095
v -7.179153 3.049082 -3.812298
v -7.044393 3.049106 -3.913314
v -6.402840 3.170639 -3.161836
v -6.542481 3.170656 -3.066146
v -6.542272 3.048384 -3.066394
v -6.402757 3.048367 -3.161975
v -6.028687 3.169049 -2.485753
v -6.184917 3.169169 -2.431862
v -6.184817 3.046896 -2.432057
v -6.028553 3.046776 -2.485954
v -8.681808 3.152708 -6.143207
v -8.841911 3.158560 -6.108674
v -8.845242 3.036239 -6.107524
v -8.681705 3.048353 -6.143296
v -8.049707 3.047378 -5.162607
v -8.204117 3.047321 -5.082706
v -8.204344 3.169593 -5.082595
v -8.049883 3.169650 -5.162534
v -7.356507 3.171058 -4.296225
v -7.495924 3.171058 -4.192855
v -7.495645 3.048785 -4.193040
v -7.356317 3.048785 -4.296333
v -6.721028 3.171239 -3.537240
v -6.857153 3.171240 -3.436483
v -6.856855 3.048968 -3.436758
v -6.720913 3.048967 -3.537353
v -6.174618 3.169837 -2.820339
v -6.319284 3.168185 -2.741361
v -6.319184 3.049298 -2.741543
v -6.174540 3.047565 -2.820518
v -5.919443 3.168384 -2.141016
v -6.073058 3.161744 -2.114910
v -6.072941 3.053065 -2.115057
v -5.919285 3.046110 -2.141204
v -9.803660 3.166831 -6.770011
v -9.613514 3.166831 -6.768659
v -9.803581 3.044558 -6.770075
v -9.613429 3.044558 -6.768728
v -6.867029 3.168123 -1.857828
v -6.867049 3.045842 -1.857920
v -6.719683 3.045726 -1.858873
v -6.719889 3.168006 -1.858782
v -9.231552 3.168499 -5.656951
v -9.397284 3.168525 -5.596526
v -9.395180 3.046272 -5.597417
v -9.232576 3.046239 -5.655853
v -8.544112 3.170451 -4.737126
v -8.689642 3.170466 -4.633447
v -8.689371 3.048193 -4.633616
v -8.543921 3.048178 -4.737227
v -7.874454 3.171379 -3.913230
v -8.009352 3.171355 -3.812095
v -8.009087 3.049082 -3.812298
v -7.874326 3.049106 -3.913314
v -7.232773 3.170639 -3.161836
v -7.372415 3.170656 -3.066146
v -7.372205 3.048384 -3.066394
v -7.232690 3.048367 -3.161975
v -6.858621 3.169049 -2.485753
v -7.014851 3.169169 -2.431862
v -7.014751 3.046896 -2.432057
v -6.858487 3.046776 -2.485954
v -9.511742 3.152708 -6.143207
v -9.671844 3.158560 -6.108674
v -9.675175 3.036239 -6.107524
v -9.511638 3.048353 -6.143296
v -8.879641 3.047378 -5.162607
v -9.034050 3.047321 -5.082706
v -9.034278 3.169593 -5.082595
v -8.879817 3.169650 -5.162534
v -8.186440 3.171058 -4.296225
v -8.325857 3.171058 -4.192855
v -8.325578 3.048785 -4.193040
v -8.186251 3.048785 -4.296333
v -7.550961 3.171239 -3.537240
v -7.687087 3.171240 -3.436483
v -7.686789 3.048968 -3.436758
v -7.550847 3.048967 -3.537353
v -7.004551 3.169837 -2.820339
v -7.149218 3.168185 -2.741361
v -7.149117 3.049298 -2.741543
v -7.004474 3.047565 -2.820518
v -6.749377 3.168384 -2.141016
v -6.902992 3.161744 -2.114910
v -6.902875 3.053065 -2.115057
v -6.749219 3.046110 -2.141204
vt 0.375000 0.500000
vt 0.625000 0.500000
vt 0.625000 0.750000
vt 0.375000 0.750000
vt 0.239583 0.000761
vt 0.250000 0.000831
vt 0.250000 0.250000
vt 0.239583 0.250000
vt 0.375233 0.864583
vt 0.624689 0.864583
vt 0.624661 0.875000
vt 0.375254 0.875000
vt 0.750000 0.250000
vt 0.750000 0.000831
vt 0.760417 0.000761
vt 0.760417 0.250000
vt 0.375000 0.375000
vt 0.625000 0.375000
vt 0.625000 0.385417
vt 0.375000 0.385417
vt 0.000000 0.000000
vt 1.000000 0.000000
vt 0.998230 3.147116
vt 0.001355 3.136530
vt 0.375000 0.479167
vt 0.625000 0.479167
vt 0.625000 0.489583
vt 0.375000 0.489583
vt 0.135417 0.000069
vt 0.145833 0.000138
vt 0.145833 0.250000
vt 0.135417 0.250000
vt 0.375021 0.760417
vt 0.624972 0.760417
vt 0.624943 0.770833
vt 0.375042 0.770833
vt 0.854167 0.250000
vt 0.854167 0.000138
vt 0.864583 0.000069
vt 0.864583 0.250000
vt 0.375000 0.468750
vt 0.625000 0.468750
vt 0.156250 0.000208
vt 0.156250 0.250000
vt 0.624915 0.781250
vt 0.375063 0.781250
vt 0.843750 0.250000
vt 0.843750 0.000208
vt 0.375000 0.437500
vt 0.625000 0.437500
vt 0.625000 0.447917
vt 0.375000 0.447917
vt 0.177083 0.000346
vt 0.187500 0.000415
vt 0.187500 0.250000
vt 0.177083 0.250000
vt 0.375106 0.802083
vt 0.624859 0.802083
vt 0.624831 0.812500
vt 0.375127 0.812500
vt 0.812500 0.250000
vt 0.812500 0.000415
vt 0.822917 0.000346
vt 0.822917 0.250000
vt 0.375000 0.416667
vt 0.625000 0.416667
vt 0.625000 0.427083
vt 0.375000 0.427083
vt 0.197916 0.000484
vt 0.208333 0.000554
vt 0.208333 0.250000
vt 0.197917 0.250000
vt 0.375148 0.822916
vt 0.624802 0.822917
vt 0.624774 0.833333
vt 0.375169 0.833333
vt 0.791667 0.250000
vt 0.791667 0.000554
vt 0.802083 0.000484
vt 0.802083 0.250000
vt 0.375000 0.395833
vt 0.625000 0.395833
vt 0.625000 0.406250
vt 0.375000 0.406250
vt 0.218750 0.000623
vt 0.229166 0.000692
vt 0.229167 0.250000
vt 0.218750 0.250000
vt 0.375190 0.843750
vt 0.624746 0.843750
vt 0.624718 0.854166
vt 0.375212 0.854166
vt 0.770833 0.250000
vt 0.770834 0.000692
vt 0.781250 0.000623
vt 0.781250 0.250000
vt 0.125000 0.000000
vt 0.125000 0.250000
vt 0.875000 0.000000
vt 0.875000 0.250000
vt 0.624887 0.791667
vt 0.375085 0.791667
vt 0.166667 0.000277
vt 0.166667 0.250000
vt 0.375000 0.458333
vt 0.625000 0.458333
vt 0.833333 0.250000
vt 0.833333 0.000277
vt 0.375000 0.500000
vt 0.625000 0.500000
vt 0.625000 0.750000
vt 0.375000 0.750000
vt 0.239583 0.000761
vt 0.250000 0.000831
vt 0.250000 0.250000
vt 0.239583 0.250000
vt 0.375233 0.864583
vt 0.624689 0.864583
vt 0.624661 0.875000
vt 0.375254 0.875000
vt 0.750000 0.250000
vt 0.750000 0.000831
vt 0.760417 0.000761
vt 0.760417 0.250000
vt 0.375000 0.375000
vt 0.625000 0.375000
vt 0.625000 0.385417
vt 0.375000 0.385417
vt 0.000000 0.000000
vt 1.000000 0.000000
vt 0.998230 3.147116
vt 0.001355 3.136530
vt 0.375000 0.479167
vt 0.625000 0.479167
vt 0.625000 0.489583
vt 0.375000 0.489583
vt 0.135417 0.000069
vt 0.145833 0.000138
vt 0.145833 0.250000
vt 0.135417 0.250000
vt 0.375021 0.760417
vt 0.624972 0.760417
vt 0.624943 0.770833
vt 0.375042 0.770833
vt 0.854167 0.250000
vt 0.854167 0.000138
vt 0.864583 0.000069
vt 0.864583 0.250000
vt 0.375000 0.468750
vt 0.625000 0.468750
vt 0.156250 0.000208
vt 0.156250 0.250000
vt 0.624915 0.781250
vt 0.375063 0.781250
vt 0.843750 0.250000
vt 0.843750 0.000208
vt 0.375000 0.437500
vt 0.625000 0.437500
vt 0.625000 0.447917
vt 0.375000 0.447917
vt 0.177083 0.000346
vt 0.187500 0.000415
vt 0.187500 0.250000
vt 0.177083 0.250000
vt 0.375106 0.802083
vt 0.624859 0.802083
vt 0.624831 0.812500
vt 0.375127 0.812500
vt 0.812500 0.250000
vt 0.812500 0.000415
vt 0.822917 0.000346
vt 0.822917 0.250000
vt 0.375000 0.416667
vt 0.625000 0.416667
vt 0.625000 0.427083
vt 0.375000 0.427083
vt 0.197916 0.000484
vt 0.208333 0.000554
vt 0.208333 0.250000
vt 0.197917 0.250000
vt 0.375148 0.822916
vt 0.624802 0.822917
vt 0.624774 0.833333
vt 0.375169 0.833333
vt 0.791667 0.250000
vt 0.791667 0.000554
vt 0.802083 0.000484
vt 0.802083 0.250000
vt 0.375000 0.395833
vt 0.625000 0.395833
vt 0.625000 0.406250
vt 0.375000 0.406250
vt 0.218750 0.000623
vt 0.229166 0.000692
vt 0.229167 0.250000
vt 0.218750 0.250000
vt 0.375190 0.843750
vt 0.624746 0.843750
vt 0.624718 0.854166
vt 0.375212 0.854166
vt 0.770833 0.250000
vt 0.770834 0.000692
vt 0.781250 0.000623
vt 0.781250 0.250000
vt 0.125000 0.000000
vt 0.125000 0.250000
vt 0.875000 0.000000
vt 0.875000 0.250000
vt 0.624887 0.791667
vt 0.375085 0.791667
vt 0.166667 0.000277
vt 0.166667 0.250000
vt 0.375000 0.458333
vt 0.625000 0.458333
vt 0.833333 0.250000
vt 0.833333 0.000277
vn 0.007098 0.000549 -0.999975
vn 0.007098 0.000549 -0.999975
vn 0.007098 0.000549 -0.999975
vn 0.007098 0.000549 -0.999975
vn -0.968493 -0.001026 0.249039
vn -0.990395 -0.000558 0.138266
vn -0.990395 -0.000558 0.138266
vn -0.968472 -0.001026 0.249122
vn -0.021234 -0.999765 0.004254
vn -0.021414 -0.999765 0.003407
vn -0.024483 -0.999638 -0.011130
vn -0.024483 -0.999638 -0.011130
vn 0.994578 0.001601 -0.103979
vn 0.994578 0.001601 -0.103979
vn 0.976380 0.001621 -0.216056
vn 0.976370 0.001621 -0.216100
vn -0.022442 0.999713 -0.008401
vn -0.022442 0.999713 -0.008401
vn -0.019073 0.999798 0.006323
vn -0.018876 0.999796 0.007184
vn 0.006476 -0.000742 0.999979
vn 0.006476 -0.000742 0.999979
vn 0.006476 -0.000742 0.999979
vn 0.006476 -0.000742 0.999979
vn 0.004514 0.999839 -0.017384
vn 0.003179 0.999905 -0.013433
vn 0.013650 0.999876 -0.007845
vn 0.014390 0.999888 -0.004145
vn -0.944686 0.009855 0.327828
vn -0.848721 -0.002890 0.528833
vn -0.848464 -0.002953 0.529246
vn -0.944507 0.009839 0.328343
vn 0.033520 -0.999387 -0.010096
vn 0.033563 -0.999384 -0.010223
vn 0.014200 -0.999893 -0.003517
vn 0.018799 -0.999809 -0.005276
vn 0.839375 -0.005486 -0.543525
vn 0.839512 -0.005488 -0.543313
vn 0.946002 -0.002230 -0.324152
vn 0.945818 -0.002240 -0.324688
vn -0.000843 0.999999 -0.001455
vn -0.000851 0.999999 -0.001414
vn 0.003179 0.999905 -0.013433
vn 0.004514 0.999839 -0.017384
vn -0.848721 -0.002890 0.528833
vn -0.806310 -0.006444 0.591458
vn -0.806291 -0.006438 0.591484
vn -0.848464 -0.002953 0.529246
vn 0.018799 -0.999809 -0.005276
vn 0.014200 -0.999893 -0.003517
vn 0.000837 -0.999999 0.001407
vn 0.000826 -0.999999 0.001448
vn 0.800561 -0.002015 -0.599247
vn 0.800585 -0.002020 -0.599215
vn 0.839512 -0.005488 -0.543313
vn 0.839375 -0.005486 -0.543525
vn -0.000174 1.000000 -0.000117
vn -0.000155 1.000000 -0.000092
vn -0.000513 1.000000 -0.000679
vn -0.000518 1.000000 -0.000692
vn -0.770132 -0.002688 0.637879
vn -0.763975 -0.002872 0.645239
vn -0.763975 -0.002872 0.645239
vn -0.770132 -0.002688 0.637879
vn 0.000517 -1.000000 0.000692
vn 0.000513 -1.000000 0.000679
vn 0.000156 -1.000000 0.000094
vn 0.000175 -1.000000 0.000119
vn 0.766749 0.001391 -0.641946
vn 0.766749 0.001391 -0.641945
vn 0.776019 0.001636 -0.630707
vn 0.776019 0.001636 -0.630708
vn -0.000411 0.999995 0.003231
vn -0.000493 0.999994 0.003394
vn 0.000437 1.000000 0.000617
vn 0.000408 1.000000 0.000585
vn -0.760491 -0.002993 0.649341
vn -0.790720 -0.002568 0.612173
vn -0.790679 -0.002568 0.612225
vn -0.760490 -0.002993 0.649343
vn -0.000408 -1.000000 -0.000584
vn -0.000436 -1.000000 -0.000615
vn -0.002383 -0.999997 0.000909
vn -0.002274 -0.999997 0.000785
vn 0.795298 0.001276 -0.606217
vn 0.795346 0.001276 -0.606155
vn 0.760441 0.001279 -0.649406
vn 0.760439 0.001279 -0.649408
vn -0.010153 0.999905 0.009305
vn -0.010419 0.999899 0.009660
vn -0.003065 0.999987 0.004082
vn -0.003060 0.999987 0.004091
vn -0.871203 -0.001756 0.490919
vn -0.930355 -0.001383 0.366657
vn -0.930342 -0.001383 0.366690
vn -0.871137 -0.001757 0.491038
vn -0.005533 -0.999984 0.000773
vn -0.005538 -0.999984 0.000763
vn -0.013016 -0.999895 0.006381
vn -0.012750 -0.999901 0.006015
vn 0.936106 0.001523 -0.351714
vn 0.936126 0.001524 -0.351662
vn 0.874959 0.001345 -0.484195
vn 0.874900 0.001345 -0.484302
vn 0.014390 0.999888 -0.004145
vn 0.013650 0.999876 -0.007845
vn 0.018041 0.999738 0.014124
vn 0.018041 0.999738 0.014124
vn -0.981097 0.013891 0.193018
vn -0.944686 0.009855 0.327828
vn -0.944507 0.009839 0.328343
vn -0.981097 0.013891 0.193018
vn 0.033308 -0.999400 -0.009463
vn 0.033308 -0.999400 -0.009463
vn 0.033563 -0.999384 -0.010223
vn 0.033520 -0.999387 -0.010096
vn 0.945818 -0.002240 -0.324688
vn 0.946002 -0.002230 -0.324152
vn 0.987017 0.000936 -0.160615
vn 0.987017 0.000936 -0.160615
vn 0.000826 -0.999999 0.001448
vn 0.000837 -0.999999 0.001407
vn 0.000730 -0.999999 0.001041
vn 0.000740 -0.999999 0.001053
vn -0.806291 -0.006438 0.591484
vn -0.806310 -0.006444 0.591458
vn -0.782292 -0.002485 0.622907
vn -0.782278 -0.002485 0.622925
vn -0.000741 0.999999 -0.001054
vn -0.000731 0.999999 -0.001042
vn -0.000851 0.999999 -0.001414
vn -0.000843 0.999999 -0.001455
vn 0.780711 0.001687 -0.624890
vn 0.780716 0.001687 -0.624884
vn 0.800585 -0.002020 -0.599215
vn 0.800561 -0.002015 -0.599247
vn -0.000518 1.000000 -0.000692
vn -0.000513 1.000000 -0.000679
vn -0.000731 0.999999 -0.001042
vn -0.000741 0.999999 -0.001054
vn -0.782292 -0.002485 0.622907
vn -0.770132 -0.002688 0.637879
vn -0.770132 -0.002688 0.637879
vn -0.782278 -0.002485 0.622925
vn 0.000740 -0.999999 0.001053
vn 0.000730 -0.999999 0.001041
vn 0.000513 -1.000000 0.000679
vn 0.000517 -1.000000 0.000692
vn 0.776019 0.001636 -0.630708
vn 0.776019 0.001636 -0.630707
vn 0.780716 0.001687 -0.624884
vn 0.780711 0.001687 -0.624890
vn 0.000408 1.000000 0.000585
vn 0.000437 1.000000 0.000617
vn -0.000155 1.000000 -0.000092
vn -0.000174 1.000000 -0.000117
vn -0.763975 -0.002872 0.645239
vn -0.760491 -0.002993 0.649341
vn -0.760490 -0.002993 0.649343
vn -0.763975 -0.002872 0.645239
vn 0.000175 -1.000000 0.000119
vn 0.000156 -1.000000 0.000094
vn -0.000436 -1.000000 -0.000615
vn -0.000408 -1.000000 -0.000584
vn 0.760439 0.001279 -0.649408
vn 0.760441 0.001279 -0.649406
vn 0.766749 0.001391 -0.641945
vn 0.766749 0.001391 -0.641946
vn -0.003060 0.999987 0.004091
vn -0.003065 0.999987 0.004082
vn -0.000493 0.999994 0.003394
vn -0.000411 0.999995 0.003231
vn -0.790720 -0.002568 0.612173
vn -0.871203 -0.001756 0.490919
vn -0.871137 -0.001757 0.491038
vn -0.790679 -0.002568 0.612225
vn -0.002274 -0.999997 0.000785
vn -0.002383 -0.999997 0.000909
vn -0.005538 -0.999984 0.000763
vn -0.005533 -0.999984 0.000773
vn 0.874900 0.001345 -0.484302
vn 0.874959 0.001345 -0.484195
vn 0.795346 0.001276 -0.606155
vn 0.795298 0.001276 -0.606217
vn -0.018876 0.999796 0.007184
vn -0.019073 0.999798 0.006323
vn -0.010419 0.999899 0.009660
vn -0.010153 0.999905 0.009305
vn -0.930355 -0.001383 0.366657
vn -0.968493 -0.001026 0.249039
vn -0.968472 -0.001026 0.249122
vn -0.930342 -0.001383 0.366690
vn -0.012750 -0.999901 0.006015
vn -0.013016 -0.999895 0.006381
vn -0.021414 -0.999765 0.003407
vn -0.021234 -0.999765 0.004254
vn 0.976370 0.001621 -0.216100
vn 0.976380 0.001621 -0.216056
vn 0.936126 0.001524 -0.351662
vn 0.936106 0.001523 -0.351714
vn 0.007098 0.000549 -0.999975
vn 0.007098 0.000549 -0.999975
vn 0.007098 0.000549 -0.999975
vn 0.007098 0.000549 -0.999975
vn -0.968493 -0.001024 0.249039
vn -0.990395 -0.000557 0.138266
vn -0.990395 -0.000557 0.138266
vn -0.968472 -0.001024 0.249122
vn -0.021235 -0.999765 0.004254
vn -0.021414 -0.999765 0.003407
vn -0.024483 -0.999638 -0.011130
vn -0.024483 -0.999638 -0.011130
vn 0.994578 0.001594 -0.103979
vn 0.994578 0.001594 -0.103979
vn 0.976380 0.001615 -0.216056
vn 0.976370 0.001615 -0.216100
vn -0.022442 0.999713 -0.008401
vn -0.022442 0.999713 -0.008401
vn -0.019073 0.999798 0.006323
vn -0.018876 0.999796 0.007184
vn 0.006476 -0.000742 0.999979
vn 0.006476 -0.000742 0.999979
vn 0.006476 -0.000742 0.999979
vn 0.006476 -0.000742 0.999979
vn 0.004514 0.999839 -0.017383
vn 0.003179 0.999905 -0.013432
vn 0.013650 0.999876 -0.007845
vn 0.014390 0.999888 -0.004145
vn -0.944686 0.009855 0.327828
vn -0.848721 -0.002888 0.528833
vn -0.848464 -0.002951 0.529245
vn -0.944507 0.009839 0.328343
vn 0.033520 -0.999387 -0.010095
vn 0.033563 -0.999384 -0.010222
vn 0.014200 -0.999893 -0.003516
vn 0.018799 -0.999809 -0.005276
vn 0.839375 -0.005476 -0.543525
vn 0.839512 -0.005477 -0.543313
vn 0.946003 -0.002233 -0.324151
vn 0.945819 -0.002244 -0.324688
vn -0.000843 0.999999 -0.001455
vn -0.000851 0.999999 -0.001413
vn 0.003179 0.999905 -0.013432
vn 0.004514 0.999839 -0.017383
vn -0.848721 -0.002888 0.528833
vn -0.806310 -0.006443 0.591458
vn -0.806291 -0.006437 0.591484
vn -0.848464 -0.002951 0.529245
vn 0.018799 -0.999809 -0.005276
vn 0.014200 -0.999893 -0.003516
vn 0.000837 -0.999999 0.001407
vn 0.000826 -0.999999 0.001448
vn 0.800561 -0.002003 -0.599248
vn 0.800585 -0.002008 -0.599216
vn 0.839512 -0.005477 -0.543313
vn 0.839375 -0.005476 -0.543525
vn -0.000174 1.000000 -0.000117
vn -0.000155 1.000000 -0.000092
vn -0.000513 1.000000 -0.000679
vn -0.000518 1.000000 -0.000692
vn -0.770132 -0.002688 0.637879
vn -0.763976 -0.002875 0.645239
vn -0.763975 -0.002875 0.645239
vn -0.770131 -0.002688 0.637880
vn 0.000517 -1.000000 0.000692
vn 0.000513 -1.000000 0.000679
vn 0.000156 -1.000000 0.000094
vn 0.000175 -1.000000 0.000119
vn 0.766749 0.001387 -0.641946
vn 0.766749 0.001387 -0.641945
vn 0.776019 0.001635 -0.630708
vn 0.776018 0.001634 -0.630708
vn -0.000411 0.999995 0.003231
vn -0.000493 0.999994 0.003394
vn 0.000437 1.000000 0.000617
vn 0.000408 1.000000 0.000585
vn -0.760491 -0.002996 0.649341
vn -0.790720 -0.002573 0.612173
vn -0.790679 -0.002574 0.612225
vn -0.760490 -0.002996 0.649343
vn -0.000408 -1.000000 -0.000584
vn -0.000436 -1.000000 -0.000615
vn -0.002383 -0.999997 0.000909
vn -0.002274 -0.999997 0.000785
vn 0.795298 0.001281 -0.606217
vn 0.795345 0.001281 -0.606155
vn 0.760441 0.001279 -0.649406
vn 0.760439 0.001279 -0.649408
vn -0.010153 0.999905 0.009305
vn -0.010419 0.999899 0.009660
vn -0.003065 0.999987 0.004082
vn -0.003060 0.999987 0.004091
vn -0.871203 -0.001765 0.490919
vn -0.930355 -0.001385 0.366657
vn -0.930342 -0.001385 0.366690
vn -0.871137 -0.001765 0.491038
vn -0.005533 -0.999984 0.000773
vn -0.005538 -0.999984 0.000763
vn -0.013016 -0.999895 0.006381
vn -0.012750 -0.999901 0.006015
vn 0.936106 0.001518 -0.351714
vn 0.936126 0.001518 -0.351662
vn 0.874959 0.001345 -0.484195
vn 0.874900 0.001345 -0.484302
vn 0.014390 0.999888 -0.004145
vn 0.013650 0.999876 -0.007845
vn 0.018041 0.999738 0.014124
vn 0.018041 0.999738 0.014124
vn -0.981097 0.013890 0.193018
vn -0.944686 0.009855 0.327828
vn -0.944507 0.009839 0.328343
vn -0.981097 0.013890 0.193018
vn 0.033308 -0.999400 -0.009463
vn 0.033308 -0.999400 -0.009463
vn 0.033563 -0.999384 -0.010222
vn 0.033520 -0.999387 -0.010095
vn 0.945819 -0.002244 -0.324688
vn 0.946003 -0.002233 -0.324151
vn 0.987017 0.000930 -0.160615
vn 0.987017 0.000930 -0.160615
vn 0.000826 -0.999999 0.001448
vn 0.000837 -0.999999 0.001407
vn 0.000730 -0.999999 0.001041
vn 0.000740 -0.999999 0.001053
vn -0.806291 -0.006437 0.591484
vn -0.806310 -0.006443 0.591458
vn -0.782292 -0.002484 0.622907
vn -0.782278 -0.002485 0.622925
vn -0.000741 0.999999 -0.001054
vn -0.000731 0.999999 -0.001042
vn -0.000851 0.999999 -0.001413
vn -0.000843 0.999999 -0.001455
vn 0.780711 0.001689 -0.624890
vn 0.780716 0.001689 -0.624884
vn 0.800585 -0.002008 -0.599216
vn 0.800561 -0.002003 -0.599248
vn -0.000518 1.000000 -0.000692
vn -0.000513 1.000000 -0.000679
vn -0.000731 0.999999 -0.001042
vn -0.000741 0.999999 -0.001054
vn -0.782292 -0.002484 0.622907
vn -0.770132 -0.002688 0.637879
vn -0.770131 -0.002688 0.637880
vn -0.782278 -0.002485 0.622925
vn 0.000740 -0.999999 0.001053
vn 0.000730 -0.999999 0.001041
vn 0.000513 -1.000000 0.000679
vn 0.000517 -1.000000 0.000692
vn 0.776018 0.001634 -0.630708
vn 0.776019 0.001635 -0.630708
vn 0.780716 0.001689 -0.624884
vn 0.780711 0.001689 -0.624890
vn 0.000408 1.000000 0.000585
vn 0.000437 1.000000 0.000617
vn -0.000155 1.000000 -0.000092
vn -0.000174 1.000000 -0.000117
vn -0.763976 -0.002875 0.645239
vn -0.760491 -0.002996 0.649341
vn -0.760490 -0.002996 0.649343
vn -0.763975 -0.002875 0.645239
vn 0.000175 -1.000000 0.000119
vn 0.000156 -1.000000 0.000094
vn -0.000436 -1.000000 -0.000615
vn -0.000408 -1.000000 -0.000584
vn 0.760439 0.001279 -0.649408
vn 0.760441 0.001279 -0.649406
vn 0.766749 0.001387 -0.641945
vn 0.766749 0.001387 -0.641946
vn -0.003060 0.999987 0.004091
vn -0.003065 0.999987 0.004082
vn -0.000493 0.999994 0.003394
vn -0.000411 0.999995 0.003231
vn -0.790720 -0.002573 0.612173
vn -0.871203 -0.001765 0.490919
vn -0.871137 -0.001765 0.491038
vn -0.790679 -0.002574 0.612225
vn -0.002274 -0.999997 0.000785
vn -0.002383 -0.999997 0.000909
vn -0.005538 -0.999984 0.000763
vn -0.005533 -0.999984 0.000773
vn 0.874900 0.001345 -0.484302
vn 0.874959 0.001345 -0.484195
vn 0.795345 0.001281 -0.606155
vn 0.795298 0.001281 -0.606217
vn -0.018876 0.999796 0.007184
vn -0.019073 0.999798 0.006323
vn -0.010419 0.999899 0.009660
vn -0.010153 0.999905 0.009305
vn -0.930355 -0.001385 0.366657
vn -0.968493 -0.001024 0.249039
vn -0.968472 -0.001024 0.249122
vn -0.930342 -0.001385 0.366690
vn -0.012750 -0.999901 0.006015
vn -0.013016 -0.999895 0.006381
vn -0.021414 -0.999765 0.003407
vn -0.021235 -0.999765 0.004254
vn 0.976370 0.001615 -0.216100
vn 0.976380 0.001615 -0.216056
vn 0.936126 0.001518 -0.351662
vn 0.936106 0.001518 -0.351714
s off
g railCurved3:pCube106
usemtl railCurved3:lambert3SG
f 1/1/1 2/2/2 4/3/3 3/4/4
f 51/5/5 6/6/6 5/7/7 50/8/8
f 51/9/9 52/10/10 7/11/11 6/12/12
f 8/13/13 7/14/14 52/15/15 49/16/16
f 5/17/17 8/18/18 49/19/19 50/20/20
f 8/21/21 5/22/22 6/23/23 7/24/24
f 10/25/25 9/26/26 29/27/27 30/28/28
f 31/29/29 11/30/30 10/31/31 30/32/32
f 31/33/33 32/34/34 12/35/35 11/36/36
f 9/37/37 12/38/38 32/39/39 29/40/40
f 35/41/41 36/42/42 9/26/43 10/25/44
f 11/30/45 34/43/46 35/44/47 10/31/48
f 11/36/49 12/35/50 33/45/51 34/46/52
f 36/47/53 33/48/54 12/38/55 9/37/56
f 18/49/57 17/50/58 37/51/59 38/52/60
f 39/53/61 19/54/62 18/55/63 38/56/64
f 39/57/65 40/58/66 20/59/67 19/60/68
f 17/61/69 20/62/70 40/63/71 37/64/72
f 22/65/73 21/66/74 41/67/75 42/68/76
f 43/69/77 23/70/78 22/71/79 42/72/80
f 43/73/81 44/74/82 24/75/83 23/76/84
f 21/77/85 24/78/86 44/79/87 41/80/88
f 26/81/89 25/82/90 45/83/91 46/84/92
f 47/85/93 27/86/94 26/87/95 46/88/96
f 47/89/97 48/90/98 28/91/99 27/92/100
f 25/93/101 28/94/102 48/95/103 45/96/104
f 30/28/105 29/27/106 2/2/107 1/1/108
f 3/97/109 31/29/110 30/32/111 1/98/112
f 3/4/113 4/3/114 32/34/115 31/33/116
f 29/40/117 32/39/118 4/99/119 2/100/120
f 34/46/121 33/45/122 16/101/123 15/102/124
f 35/44/125 34/43/126 15/103/127 14/104/128
f 14/105/129 13/106/130 36/42/131 35/41/132
f 13/107/133 16/108/134 33/48/135 36/47/136
f 38/52/137 37/51/138 13/106/139 14/105/140
f 15/103/141 39/53/142 38/56/143 14/104/144
f 15/102/145 16/101/146 40/58/147 39/57/148
f 37/64/149 40/63/150 16/108/151 13/107/152
f 42/68/153 41/67/154 17/50/155 18/49/156
f 19/54/157 43/69/158 42/72/159 18/55/160
f 19/60/161 20/59/162 44/74/163 43/73/164
f 41/80/165 44/79/166 20/62/167 17/61/168
f 46/84/169 45/83/170 21/66/171 22/65/172
f 23/70/173 47/85/174 46/88/175 22/71/176
f 23/76/177 24/75/178 48/90/179 47/89/180
f 45/96/181 48/95/182 24/78/183 21/77/184
f 50/20/185 49/19/186 25/82/187 26/81/188
f 27/86/189 51/5/190 50/8/191 26/87/192
f 27/92/193 28/91/194 52/10/195 51/9/196
f 49/16/197 52/15/198 28/94/199 25/93/200
f 53/109/201 54/110/202 56/111/203 55/112/204
f 103/113/205 58/114/206 57/115/207 102/116/208
f 103/117/209 104/118/210 59/119/211 58/120/212
f 60/121/213 59/122/214 104/123/215 101/124/216
f 57/125/217 60/126/218 101/127/219 102/128/220
f 60/129/221 57/130/222 58/131/223 59/132/224
f 62/133/225 61/134/226 81/135/227 82/136/228
f 83/137/229 63/138/230 62/139/231 82/140/232
f 83/141/233 84/142/234 64/143/235 63/144/236
f 61/145/237 64/146/238 84/147/239 81/148/240
f 87/149/241 88/150/242 61/134/243 62/133/244
f 63/138/245 86/151/246 87/152/247 62/139/248
f 63/144/249 64/143/250 85/153/251 86/154/252
f 88/155/253 85/156/254 64/146/255 61/145/256
f 70/157/257 69/158/258 89/159/259 90/160/260
f 91/161/261 71/162/262 70/163/263 90/164/264
f 91/165/265 92/166/266 72/167/267 71/168/268
f 69/169/269 72/170/270 92/171/271 89/172/272
f 74/173/273 73/174/274 93/175/275 94/176/276
f 95/177/277 75/178/278 74/179/279 94/180/280
f 95/181/281 96/182/282 76/183/283 75/184/284
f 73/185/285 76/186/286 96/187/287 93/188/288
f 78/189/289 77/190/290 97/191/291 98/192/292
f 99/193/293 79/194/294 78/195/295 98/196/296
f 99/197/297 100/198/298 80/199/299 79/200/300
f 77/201/301 80/202/302 100/203/303 97/204/304
f 82/136/305 81/135/306 54/110/307 53/109/308
f 55/205/309 83/137/310 82/140/311 53/206/312
f 55/112/313 56/111/314 84/142/315 83/141/316
f 81/148/317 84/147/318 56/207/319 54/208/320
f 86/154/321 85/153/322 68/209/323 67/210/324
f 87/152/325 86/151/326 67/211/327 66/212/328
f 66/213/329 65/214/330 88/150/331 87/149/332
f 65/215/333 68/216/334 85/156/335 88/155/336
f 90/160/337 89/159/338 65/214/339 66/213/340
f 67/211/341 91/161/342 90/164/343 66/212/344
f 67/210/345 68/209/346 92/166/347 91/165/348
f 89/172/349 92/171/350 68/216/351 65/215/352
f 94/176/353 93/175/354 69/158/355 70/157/356
f 71/162/357 95/177/358 94/180/359 70/163/360
f 71/168/361 72/167/362 96/182/363 95/181/364
f 93/188/365 96/187/366 72/170/367 69/169/368
f 98/192/369 97/191/370 73/174/371 74/173/372
f 75/178/373 99/193/374 98/196/375 74/179/376
f 75/184/377 76/183/378 100/198/379 99/197/380
f 97/204/381 100/203/382 76/186/383 73/185/384
f 102/128/385 101/127/386 77/190/387 78/189/388
f 79/194/389 103/113/390 102/116/391 78/195/392
f 79/200/393 80/199/394 104/118/395 103/117/396
f 101/124/397 104/123/398 80/202/399 77/201/400
