# This file uses centimeters as units for non-parametric coordinates.

mtllib railStraight.mtl
g default
v -0.760557 -0.169346 -8.384566
v 0.760564 -0.169346 -8.384566
v -0.760557 -0.066391 -8.384566
v 0.760564 -0.066391 -8.384566
v -0.760557 -0.066391 -8.716702
v 0.760564 -0.066391 -8.716702
v -0.760557 -0.169346 -8.716702
v 0.760564 -0.169346 -8.716702
v -0.760557 -0.169346 -7.673926
v 0.760564 -0.169346 -7.673926
v -0.760557 -0.066391 -7.673926
v 0.760564 -0.066391 -7.673926
v -0.760557 -0.066391 -8.006062
v 0.760564 -0.066391 -8.006062
v -0.760557 -0.169346 -8.006062
v 0.760564 -0.169346 -8.006062
v -0.760557 -0.169346 -6.963285
v 0.760564 -0.169346 -6.963285
v -0.760557 -0.066391 -6.963285
v 0.760564 -0.066391 -6.963285
v -0.760557 -0.066391 -7.295422
v 0.760564 -0.066391 -7.295422
v -0.760557 -0.169346 -7.295422
v 0.760564 -0.169346 -7.295422
v -0.760557 -0.169346 -6.252645
v 0.760564 -0.169346 -6.252645
v -0.760557 -0.066391 -6.252645
v 0.760564 -0.066391 -6.252645
v -0.760557 -0.066391 -6.584782
v 0.760564 -0.066391 -6.584782
v -0.760557 -0.169346 -6.584782
v 0.760564 -0.169346 -6.584782
v -0.760557 -0.169346 -5.542006
v 0.760564 -0.169346 -5.542006
v -0.760557 -0.066391 -5.542006
v 0.760564 -0.066391 -5.542006
v -0.760557 -0.066391 -5.874142
v 0.760564 -0.066391 -5.874142
v -0.760557 -0.169346 -5.874142
v 0.760564 -0.169346 -5.874142
v -0.760557 -0.169346 -4.831366
v 0.760564 -0.169346 -4.831366
v -0.760557 -0.066391 -4.831366
v 0.760564 -0.066391 -4.831366
v -0.760557 -0.066391 -5.163502
v 0.760564 -0.066391 -5.163502
v -0.760557 -0.169346 -5.163502
v 0.760564 -0.169346 -5.163502
v -0.760557 -0.169346 -4.120725
v 0.760564 -0.169346 -4.120725
v -0.760557 -0.066391 -4.120725
v 0.760564 -0.066391 -4.120725
v -0.760557 -0.066391 -4.452861
v 0.760564 -0.066391 -4.452861
v -0.760557 -0.169346 -4.452861
v 0.760564 -0.169346 -4.452861
v -0.760557 -0.169346 -3.410085
v 0.760564 -0.169346 -3.410085
v -0.760557 -0.066391 -3.410085
v 0.760564 -0.066391 -3.410085
v -0.760557 -0.066391 -3.742221
v 0.760564 -0.066391 -3.742221
v -0.760557 -0.169346 -3.742221
v 0.760564 -0.169346 -3.742221
v -0.760557 -0.169346 -2.699445
v 0.760564 -0.169346 -2.699445
v -0.760557 -0.066391 -2.699445
v 0.760564 -0.066391 -2.699445
v -0.760557 -0.066391 -3.031581
v 0.760564 -0.066391 -3.031581
v -0.760557 -0.169346 -3.031581
v 0.760564 -0.169346 -3.031581
v -0.760557 -0.169346 -1.988804
v 0.760564 -0.169346 -1.988804
v -0.760557 -0.066391 -1.988804
v 0.760564 -0.066391 -1.988804
v -0.760557 -0.066391 -2.320940
v 0.760564 -0.066391 -2.320940
v -0.760557 -0.169346 -2.320940
v 0.760564 -0.169346 -2.320940
v -0.760557 -0.169346 -1.278164
v 0.760564 -0.169346 -1.278164
v -0.760557 -0.066391 -1.278164
v 0.760564 -0.066391 -1.278164
v -0.760557 -0.066391 -1.610300
v 0.760564 -0.066391 -1.610300
v -0.760557 -0.169346 -1.610300
v 0.760564 -0.169346 -1.610300
v -0.760557 -0.169346 -0.567524
v 0.760564 -0.169346 -0.567524
v -0.760557 -0.066391 -0.567524
v 0.760564 -0.066391 -0.567524
v -0.760557 -0.066391 -0.899660
v 0.760564 -0.066391 -0.899660
v -0.760557 -0.169346 -0.899660
v 0.760564 -0.169346 -0.899660
v -0.760557 -0.169346 0.143116
v 0.760564 -0.169346 0.143116
v -0.760557 -0.066391 0.143116
v 0.760564 -0.066391 0.143116
v -0.760557 -0.066391 -0.189020
v 0.760564 -0.066391 -0.189020
v -0.760557 -0.169346 -0.189020
v 0.760564 -0.169346 -0.189020
v -0.484368 -0.054510 0.353395
v -0.292546 -0.054510 0.353395
v -0.484368 0.067763 0.353395
v -0.292546 0.067763 0.353395
v -0.484368 0.067763 -8.935904
v -0.292546 0.067763 -8.935904
v -0.484368 -0.054510 -8.935904
v -0.292546 -0.054510 -8.935904
v 0.343629 -0.054510 0.353395
v 0.535451 -0.054510 0.353395
v 0.343629 0.067763 0.353395
v 0.535451 0.067763 0.353395
v 0.343629 0.067763 -8.935904
v 0.535451 0.067763 -8.935904
v 0.343629 -0.054510 -8.935904
v 0.535451 -0.054510 -8.935904
vt 0.477909 0.987507
vt 0.477909 0.409457
vt 0.521850 0.409457
vt 0.521850 0.987507
vt 0.658252 0.409457
vt 0.658252 0.987507
vt 0.700080 0.409457
vt 0.700080 0.987507
vt 0.927086 0.534695
vt 0.877522 0.534755
vt 0.877379 0.418140
vt 0.926944 0.418080
vt 0.927086 0.529422
vt 0.877522 0.529483
vt 0.877379 0.412867
vt 0.926944 0.412806
vt 0.213327 0.987507
vt 0.213327 0.409457
vt 0.257267 0.409457
vt 0.257267 0.987507
vt 0.393669 0.409457
vt 0.393669 0.987507
vt 0.435498 0.409457
vt 0.435498 0.987507
vt 0.927086 0.532495
vt 0.877522 0.532556
vt 0.877379 0.415940
vt 0.926944 0.415880
vt 0.927086 0.532495
vt 0.877522 0.532556
vt 0.877379 0.415940
vt 0.926944 0.415880
vt 0.758658 0.987507
vt 0.758658 0.409457
vt 0.802598 0.409457
vt 0.802598 0.987507
vt 0.939000 0.409457
vt 0.939000 0.987507
vt 0.980829 0.409457
vt 0.980829 0.987507
vt 0.926074 0.533888
vt 0.878299 0.533946
vt 0.878152 0.412624
vt 0.925926 0.412566
vt 0.927086 0.532495
vt 0.877522 0.532556
vt 0.877379 0.415940
vt 0.926944 0.415880
vt 0.477909 0.987507
vt 0.477909 0.409457
vt 0.521850 0.409457
vt 0.521850 0.987507
vt 0.658252 0.409457
vt 0.658252 0.987507
vt 0.700080 0.409457
vt 0.700080 0.987507
vt 0.926074 0.533888
vt 0.878299 0.533946
vt 0.878152 0.412624
vt 0.925926 0.412566
vt 0.927086 0.532495
vt 0.877522 0.532556
vt 0.877379 0.415940
vt 0.926944 0.415880
vt 0.758658 0.987507
vt 0.758658 0.409457
vt 0.802598 0.409457
vt 0.802598 0.987507
vt 0.939000 0.409457
vt 0.939000 0.987507
vt 0.980829 0.409457
vt 0.980829 0.987507
vt 0.926074 0.533888
vt 0.878299 0.533946
vt 0.878152 0.412624
vt 0.925926 0.412566
vt 0.927086 0.532495
vt 0.877522 0.532556
vt 0.877379 0.415940
vt 0.926944 0.415880
vt 0.213327 0.987507
vt 0.213327 0.409457
vt 0.257267 0.409457
vt 0.257267 0.987507
vt 0.393669 0.409457
vt 0.393669 0.987507
vt 0.435498 0.409457
vt 0.435498 0.987507
vt 0.926074 0.533888
vt 0.878299 0.533946
vt 0.878152 0.412624
vt 0.925926 0.412566
vt 0.927086 0.532495
vt 0.877522 0.532556
vt 0.877379 0.415940
vt 0.926944 0.415880
vt 0.477909 0.987507
vt 0.477909 0.409457
vt 0.521850 0.409457
vt 0.521850 0.987507
vt 0.658252 0.409457
vt 0.658252 0.987507
vt 0.700081 0.409457
vt 0.700081 0.987507
vt 0.926074 0.533888
vt 0.878299 0.533946
vt 0.878152 0.412624
vt 0.925926 0.412566
vt 0.927086 0.532495
vt 0.877522 0.532556
vt 0.877379 0.415940
vt 0.926944 0.415880
vt 0.758658 0.987507
vt 0.758658 0.409457
vt 0.802598 0.409457
vt 0.802598 0.987507
vt 0.939000 0.409457
vt 0.939000 0.987507
vt 0.980829 0.409457
vt 0.980829 0.987507
vt 0.926074 0.533888
vt 0.878299 0.533946
vt 0.878152 0.412624
vt 0.925926 0.412566
vt 0.927086 0.532495
vt 0.877522 0.532556
vt 0.877379 0.415940
vt 0.926944 0.415880
vt 0.477909 0.987507
vt 0.477909 0.409457
vt 0.521850 0.409457
vt 0.521850 0.987507
vt 0.658252 0.409457
vt 0.658252 0.987507
vt 0.700080 0.409457
vt 0.700080 0.987507
vt 0.926074 0.533888
vt 0.878299 0.533946
vt 0.878152 0.412624
vt 0.925926 0.412566
vt 0.927086 0.532495
vt 0.877522 0.532556
vt 0.877379 0.415940
vt 0.926944 0.415880
vt 0.213327 0.987507
vt 0.213327 0.409457
vt 0.257267 0.409457
vt 0.257267 0.987507
vt 0.393669 0.409457
vt 0.393669 0.987507
vt 0.435498 0.409457
vt 0.435498 0.987507
vt 0.926074 0.533888
vt 0.878299 0.533946
vt 0.878152 0.412624
vt 0.925926 0.412566
vt 0.927086 0.532495
vt 0.877522 0.532556
vt 0.877379 0.415940
vt 0.926944 0.415880
vt 0.758658 0.987507
vt 0.758658 0.409457
vt 0.802598 0.409457
vt 0.802598 0.987507
vt 0.939000 0.409457
vt 0.939000 0.987507
vt 0.980829 0.409457
vt 0.980829 0.987507
vt 0.926074 0.533888
vt 0.878299 0.533946
vt 0.878152 0.412624
vt 0.925926 0.412566
vt 0.927086 0.532495
vt 0.877522 0.532556
vt 0.877379 0.415940
vt 0.926944 0.415880
vt 0.213327 0.987507
vt 0.213327 0.409457
vt 0.257267 0.409457
vt 0.257267 0.987507
vt 0.521850 0.987507
vt 0.521850 0.409457
vt 0.658252 0.409457
vt 0.658252 0.987507
vt 0.393669 0.987507
vt 0.393669 0.409457
vt 0.435498 0.409457
vt 0.435498 0.987507
vt 0.926074 0.533888
vt 0.878299 0.533946
vt 0.878152 0.412624
vt 0.925926 0.412566
vt 0.927086 0.532495
vt 0.877522 0.532556
vt 0.877379 0.415940
vt 0.926944 0.415880
vt 0.213327 0.987507
vt 0.213327 0.409457
vt 0.257267 0.409457
vt 0.257267 0.987507
vt 0.393669 0.409457
vt 0.393669 0.987507
vt 0.435498 0.409457
vt 0.435498 0.987507
vt 0.926074 0.533888
vt 0.878299 0.533946
vt 0.878152 0.412624
vt 0.925926 0.412566
vt 0.927086 0.532495
vt 0.877522 0.532556
vt 0.877379 0.415940
vt 0.926944 0.415880
vt 0.174085 0.001992
vt 0.174085 0.998008
vt 0.156014 0.998008
vt 0.156014 0.001992
vt 0.107247 0.998008
vt 0.107247 0.001992
vt 0.126599 0.001992
vt 0.126599 0.998008
vt 0.078771 0.001992
vt 0.078771 0.998008
vt 0.060700 0.998008
vt 0.060700 0.001992
vt 0.011933 0.998008
vt 0.011933 0.001992
vt 0.031285 0.001992
vt 0.031285 0.998008
vn 0.000000 0.000000 1.000000
vn 0.000000 0.000000 1.000000
vn 0.000000 0.000000 1.000000
vn 0.000000 0.000000 1.000000
vn 0.000000 1.000000 0.000000
vn 0.000000 1.000000 0.000000
vn 0.000000 1.000000 0.000000
vn 0.000000 1.000000 0.000000
vn 0.000000 0.000000 -1.000000
vn 0.000000 0.000000 -1.000000
vn 0.000000 0.000000 -1.000000
vn 0.000000 0.000000 -1.000000
vn 1.000000 0.000000 0.000000
vn 1.000000 0.000000 0.000000
vn 1.000000 0.000000 0.000000
vn 1.000000 0.000000 0.000000
vn -1.000000 0.000000 0.000000
vn -1.000000 0.000000 0.000000
vn -1.000000 0.000000 0.000000
vn -1.000000 0.000000 0.000000
vn 0.000000 0.000000 1.000000
vn 0.000000 0.000000 1.000000
vn 0.000000 0.000000 1.000000
vn 0.000000 0.000000 1.000000
vn 0.000000 1.000000 0.000000
vn 0.000000 1.000000 0.000000
vn 0.000000 1.000000 0.000000
vn 0.000000 1.000000 0.000000
vn 0.000000 0.000000 -1.000000
vn 0.000000 0.000000 -1.000000
vn 0.000000 0.000000 -1.000000
vn 0.000000 0.000000 -1.000000
vn 1.000000 0.000000 0.000000
vn 1.000000 0.000000 0.000000
vn 1.000000 0.000000 0.000000
vn 1.000000 0.000000 0.000000
vn -1.000000 0.000000 0.000000
vn -1.000000 0.000000 0.000000
vn -1.000000 0.000000 0.000000
vn -1.000000 0.000000 0.000000
vn 0.000000 0.000000 1.000000
vn 0.000000 0.000000 1.000000
vn 0.000000 0.000000 1.000000
vn 0.000000 0.000000 1.000000
vn 0.000000 1.000000 0.000000
vn 0.000000 1.000000 0.000000
vn 0.000000 1.000000 0.000000
vn 0.000000 1.000000 0.000000
vn 0.000000 0.000000 -1.000000
vn 0.000000 0.000000 -1.000000
vn 0.000000 0.000000 -1.000000
vn 0.000000 0.000000 -1.000000
vn 1.000000 0.000000 0.000000
vn 1.000000 0.000000 0.000000
vn 1.000000 0.000000 0.000000
vn 1.000000 0.000000 0.000000
vn -1.000000 0.000000 0.000000
vn -1.000000 0.000000 0.000000
vn -1.000000 0.000000 0.000000
vn -1.000000 0.000000 0.000000
vn 0.000000 0.000000 1.000000
vn 0.000000 0.000000 1.000000
vn 0.000000 0.000000 1.000000
vn 0.000000 0.000000 1.000000
vn 0.000000 1.000000 0.000000
vn 0.000000 1.000000 0.000000
vn 0.000000 1.000000 0.000000
vn 0.000000 1.000000 0.000000
vn 0.000000 0.000000 -1.000000
vn 0.000000 0.000000 -1.000000
vn 0.000000 0.000000 -1.000000
vn 0.000000 0.000000 -1.000000
vn 1.000000 0.000000 0.000000
vn 1.000000 0.000000 0.000000
vn 1.000000 0.000000 0.000000
vn 1.000000 0.000000 0.000000
vn -1.000000 0.000000 0.000000
vn -1.000000 0.000000 0.000000
vn -1.000000 0.000000 0.000000
vn -1.000000 0.000000 0.000000
vn 0.000000 0.000000 1.000000
vn 0.000000 0.000000 1.000000
vn 0.000000 0.000000 1.000000
vn 0.000000 0.000000 1.000000
vn 0.000000 1.000000 0.000000
vn 0.000000 1.000000 0.000000
vn 0.000000 1.000000 0.000000
vn 0.000000 1.000000 0.000000
vn 0.000000 0.000000 -1.000000
vn 0.000000 0.000000 -1.000000
vn 0.000000 0.000000 -1.000000
vn 0.000000 0.000000 -1.000000
vn 1.000000 0.000000 0.000000
vn 1.000000 0.000000 0.000000
vn 1.000000 0.000000 0.000000
vn 1.000000 0.000000 0.000000
vn -1.000000 0.000000 0.000000
vn -1.000000 0.000000 0.000000
vn -1.000000 0.000000 0.000000
vn -1.000000 0.000000 0.000000
vn 0.000000 0.000000 1.000000
vn 0.000000 0.000000 1.000000
vn 0.000000 0.000000 1.000000
vn 0.000000 0.000000 1.000000
vn 0.000000 1.000000 0.000000
vn 0.000000 1.000000 0.000000
vn 0.000000 1.000000 0.000000
vn 0.000000 1.000000 0.000000
vn 0.000000 0.000000 -1.000000
vn 0.000000 0.000000 -1.000000
vn 0.000000 0.000000 -1.000000
vn 0.000000 0.000000 -1.000000
vn 1.000000 0.000000 0.000000
vn 1.000000 0.000000 0.000000
vn 1.000000 0.000000 0.000000
vn 1.000000 0.000000 0.000000
vn -1.000000 0.000000 0.000000
vn -1.000000 0.000000 0.000000
vn -1.000000 0.000000 0.000000
vn -1.000000 0.000000 0.000000
vn 0.000000 0.000000 1.000000
vn 0.000000 0.000000 1.000000
vn 0.000000 0.000000 1.000000
vn 0.000000 0.000000 1.000000
vn 0.000000 1.000000 0.000000
vn 0.000000 1.000000 0.000000
vn 0.000000 1.000000 0.000000
vn 0.000000 1.000000 0.000000
vn 0.000000 0.000000 -1.000000
vn 0.000000 0.000000 -1.000000
vn 0.000000 0.000000 -1.000000
vn 0.000000 0.000000 -1.000000
vn 1.000000 0.000000 0.000000
vn 1.000000 0.000000 0.000000
vn 1.000000 0.000000 0.000000
vn 1.000000 0.000000 0.000000
vn -1.000000 0.000000 0.000000
vn -1.000000 0.000000 0.000000
vn -1.000000 0.000000 0.000000
vn -1.000000 0.000000 0.000000
vn 0.000000 0.000000 1.000000
vn 0.000000 0.000000 1.000000
vn 0.000000 0.000000 1.000000
vn 0.000000 0.000000 1.000000
vn 0.000000 1.000000 0.000000
vn 0.000000 1.000000 0.000000
vn 0.000000 1.000000 0.000000
vn 0.000000 1.000000 0.000000
vn 0.000000 0.000000 -1.000000
vn 0.000000 0.000000 -1.000000
vn 0.000000 0.000000 -1.000000
vn 0.000000 0.000000 -1.000000
vn 1.000000 0.000000 0.000000
vn 1.000000 0.000000 0.000000
vn 1.000000 0.000000 0.000000
vn 1.000000 0.000000 0.000000
vn -1.000000 0.000000 0.000000
vn -1.000000 0.000000 0.000000
vn -1.000000 0.000000 0.000000
vn -1.000000 0.000000 0.000000
vn 0.000000 0.000000 1.000000
vn 0.000000 0.000000 1.000000
vn 0.000000 0.000000 1.000000
vn 0.000000 0.000000 1.000000
vn 0.000000 1.000000 0.000000
vn 0.000000 1.000000 0.000000
vn 0.000000 1.000000 0.000000
vn 0.000000 1.000000 0.000000
vn 0.000000 0.000000 -1.000000
vn 0.000000 0.000000 -1.000000
vn 0.000000 0.000000 -1.000000
vn 0.000000 0.000000 -1.000000
vn 1.000000 0.000000 0.000000
vn 1.000000 0.000000 0.000000
vn 1.000000 0.000000 0.000000
vn 1.000000 0.000000 0.000000
vn -1.000000 0.000000 0.000000
vn -1.000000 0.000000 0.000000
vn -1.000000 0.000000 0.000000
vn -1.000000 0.000000 0.000000
vn 0.000000 0.000000 1.000000
vn 0.000000 0.000000 1.000000
vn 0.000000 0.000000 1.000000
vn 0.000000 0.000000 1.000000
vn 0.000000 1.000000 0.000000
vn 0.000000 1.000000 0.000000
vn 0.000000 1.000000 0.000000
vn 0.000000 1.000000 0.000000
vn 0.000000 0.000000 -1.000000
vn 0.000000 0.000000 -1.000000
vn 0.000000 0.000000 -1.000000
vn 0.000000 0.000000 -1.000000
vn 1.000000 0.000000 0.000000
vn 1.000000 0.000000 0.000000
vn 1.000000 0.000000 0.000000
vn 1.000000 0.000000 0.000000
vn -1.000000 0.000000 0.000000
vn -1.000000 0.000000 0.000000
vn -1.000000 0.000000 0.000000
vn -1.000000 0.000000 0.000000
vn 0.000000 0.000000 1.000000
vn 0.000000 0.000000 1.000000
vn 0.000000 0.000000 1.000000
vn 0.000000 0.000000 1.000000
vn 0.000000 1.000000 0.000000
vn 0.000000 1.000000 0.000000
vn 0.000000 1.000000 0.000000
vn 0.000000 1.000000 0.000000
vn 0.000000 0.000000 -1.000000
vn 0.000000 0.000000 -1.000000
vn 0.000000 0.000000 -1.000000
vn 0.000000 0.000000 -1.000000
vn 1.000000 0.000000 0.000000
vn 1.000000 0.000000 0.000000
vn 1.000000 0.000000 0.000000
vn 1.000000 0.000000 0.000000
vn -1.000000 0.000000 0.000000
vn -1.000000 0.000000 0.000000
vn -1.000000 0.000000 0.000000
vn -1.000000 0.000000 0.000000
vn 0.000000 0.000000 1.000000
vn 0.000000 0.000000 1.000000
vn 0.000000 0.000000 1.000000
vn 0.000000 0.000000 1.000000
vn 0.000000 1.000000 0.000000
vn 0.000000 1.000000 0.000000
vn 0.000000 1.000000 0.000000
vn 0.000000 1.000000 0.000000
vn 0.000000 0.000000 -1.000000
vn 0.000000 0.000000 -1.000000
vn 0.000000 0.000000 -1.000000
vn 0.000000 0.000000 -1.000000
vn 1.000000 0.000000 0.000000
vn 1.000000 0.000000 0.000000
vn 1.000000 0.000000 0.000000
vn 1.000000 0.000000 0.000000
vn -1.000000 0.000000 0.000000
vn -1.000000 0.000000 0.000000
vn -1.000000 0.000000 0.000000
vn -1.000000 0.000000 0.000000
vn 0.000000 0.000000 1.000000
vn 0.000000 0.000000 1.000000
vn 0.000000 0.000000 1.000000
vn 0.000000 0.000000 1.000000
vn 0.000000 1.000000 0.000000
vn 0.000000 1.000000 0.000000
vn 0.000000 1.000000 0.000000
vn 0.000000 1.000000 0.000000
vn 0.000000 0.000000 -1.000000
vn 0.000000 0.000000 -1.000000
vn 0.000000 0.000000 -1.000000
vn 0.000000 0.000000 -1.000000
vn 1.000000 0.000000 0.000000
vn 1.000000 0.000000 0.000000
vn 1.000000 0.000000 0.000000
vn 1.000000 0.000000 0.000000
vn -1.000000 0.000000 0.000000
vn -1.000000 0.000000 0.000000
vn -1.000000 0.000000 0.000000
vn -1.000000 0.000000 0.000000
vn 0.000000 1.000000 0.000000
vn 0.000000 1.000000 0.000000
vn 0.000000 1.000000 0.000000
vn 0.000000 1.000000 0.000000
vn 1.000000 0.000000 0.000000
vn 1.000000 0.000000 0.000000
vn 1.000000 0.000000 0.000000
vn 1.000000 0.000000 0.000000
vn -1.000000 0.000000 0.000000
vn -1.000000 0.000000 0.000000
vn -1.000000 0.000000 0.000000
vn -1.000000 0.000000 0.000000
vn 0.000000 1.000000 0.000000
vn 0.000000 1.000000 0.000000
vn 0.000000 1.000000 0.000000
vn 0.000000 1.000000 0.000000
vn 1.000000 0.000000 0.000000
vn 1.000000 0.000000 0.000000
vn 1.000000 0.000000 0.000000
vn 1.000000 0.000000 0.000000
vn -1.000000 0.000000 0.000000
vn -1.000000 0.000000 0.000000
vn -1.000000 0.000000 0.000000
vn -1.000000 0.000000 0.000000
s off
g railStraight:rail_straight
usemtl railStraight:lambert5SG
f 1/1/1 2/2/2 4/3/3 3/4/4
f 3/4/5 4/3/6 6/5/7 5/6/8
f 5/6/9 6/5/10 8/7/11 7/8/12
f 2/9/13 8/10/14 6/11/15 4/12/16
f 7/13/17 1/14/18 3/15/19 5/16/20
f 9/17/21 10/18/22 12/19/23 11/20/24
f 11/20/25 12/19/26 14/21/27 13/22/28
f 13/22/29 14/21/30 16/23/31 15/24/32
f 10/25/33 16/26/34 14/27/35 12/28/36
f 15/29/37 9/30/38 11/31/39 13/32/40
f 17/33/41 18/34/42 20/35/43 19/36/44
f 19/36/45 20/35/46 22/37/47 21/38/48
f 21/38/49 22/37/50 24/39/51 23/40/52
f 18/41/53 24/42/54 22/43/55 20/44/56
f 23/45/57 17/46/58 19/47/59 21/48/60
f 25/49/61 26/50/62 28/51/63 27/52/64
f 27/52/65 28/51/66 30/53/67 29/54/68
f 29/54/69 30/53/70 32/55/71 31/56/72
f 26/57/73 32/58/74 30/59/75 28/60/76
f 31/61/77 25/62/78 27/63/79 29/64/80
f 33/65/81 34/66/82 36/67/83 35/68/84
f 35/68/85 36/67/86 38/69/87 37/70/88
f 37/70/89 38/69/90 40/71/91 39/72/92
f 34/73/93 40/74/94 38/75/95 36/76/96
f 39/77/97 33/78/98 35/79/99 37/80/100
f 41/81/101 42/82/102 44/83/103 43/84/104
f 43/84/105 44/83/106 46/85/107 45/86/108
f 45/86/109 46/85/110 48/87/111 47/88/112
f 42/89/113 48/90/114 46/91/115 44/92/116
f 47/93/117 41/94/118 43/95/119 45/96/120
f 49/97/121 50/98/122 52/99/123 51/100/124
f 51/100/125 52/99/126 54/101/127 53/102/128
f 53/102/129 54/101/130 56/103/131 55/104/132
f 50/105/133 56/106/134 54/107/135 52/108/136
f 55/109/137 49/110/138 51/111/139 53/112/140
f 57/113/141 58/114/142 60/115/143 59/116/144
f 59/116/145 60/115/146 62/117/147 61/118/148
f 61/118/149 62/117/150 64/119/151 63/120/152
f 58/121/153 64/122/154 62/123/155 60/124/156
f 63/125/157 57/126/158 59/127/159 61/128/160
f 65/129/161 66/130/162 68/131/163 67/132/164
f 67/132/165 68/131/166 70/133/167 69/134/168
f 69/134/169 70/133/170 72/135/171 71/136/172
f 66/137/173 72/138/174 70/139/175 68/140/176
f 71/141/177 65/142/178 67/143/179 69/144/180
f 73/145/181 74/146/182 76/147/183 75/148/184
f 75/148/185 76/147/186 78/149/187 77/150/188
f 77/150/189 78/149/190 80/151/191 79/152/192
f 74/153/193 80/154/194 78/155/195 76/156/196
f 79/157/197 73/158/198 75/159/199 77/160/200
f 81/161/201 82/162/202 84/163/203 83/164/204
f 83/164/205 84/163/206 86/165/207 85/166/208
f 85/166/209 86/165/210 88/167/211 87/168/212
f 82/169/213 88/170/214 86/171/215 84/172/216
f 87/173/217 81/174/218 83/175/219 85/176/220
f 89/177/221 90/178/222 92/179/223 91/180/224
f 91/181/225 92/182/226 94/183/227 93/184/228
f 93/185/229 94/186/230 96/187/231 95/188/232
f 90/189/233 96/190/234 94/191/235 92/192/236
f 95/193/237 89/194/238 91/195/239 93/196/240
f 97/197/241 98/198/242 100/199/243 99/200/244
f 99/200/245 100/199/246 102/201/247 101/202/248
f 101/202/249 102/201/250 104/203/251 103/204/252
f 98/205/253 104/206/254 102/207/255 100/208/256
f 103/209/257 97/210/258 99/211/259 101/212/260
f 107/219/261 108/216/262 110/215/263 109/220/264
f 106/213/265 112/214/266 110/215/267 108/216/268
f 111/217/269 105/218/270 107/219/271 109/220/272
f 115/227/273 116/224/274 118/223/275 117/228/276
f 114/221/277 120/222/278 118/223/279 116/224/280
f 119/225/281 113/226/282 115/227/283 117/228/284
