# This file uses centimeters as units for non-parametric coordinates.

mtllib railStraight.mtl
g default
v -0.760557 -0.169346 -8.384566
v 0.760564 -0.169346 -8.384566
v -0.760557 -0.066391 -8.384566
v 0.760564 -0.066391 -8.384566
v -0.760557 -0.066391 -8.716702
v 0.760564 -0.066391 -8.716702
v -0.760557 -0.169346 -8.716702
v 0.760564 -0.169346 -8.716702
v -0.760557 -0.169346 -7.673926
v 0.760564 -0.169346 -7.673926
v -0.760557 -0.066391 -7.673926
v 0.760564 -0.066391 -7.673926
v -0.760557 -0.066391 -8.006062
v 0.760564 -0.066391 -8.006062
v -0.760557 -0.169346 -8.006062
v 0.760564 -0.169346 -8.006062
v -0.760557 -0.169346 -6.963285
v 0.760564 -0.169346 -6.963285
v -0.760557 -0.066391 -6.963285
v 0.760564 -0.066391 -6.963285
v -0.760557 -0.066391 -7.295422
v 0.760564 -0.066391 -7.295422
v -0.760557 -0.169346 -7.295422
v 0.760564 -0.169346 -7.295422
v -0.760557 -0.169346 -6.252645
v 0.760564 -0.169346 -6.252645
v -0.760557 -0.066391 -6.252645
v 0.760564 -0.066391 -6.252645
v -0.760557 -0.066391 -6.584782
v 0.760564 -0.066391 -6.584782
v -0.760557 -0.169346 -6.584782
v 0.760564 -0.169346 -6.584782
v -0.760557 -0.169346 -5.542006
v 0.760564 -0.169346 -5.542006
v -0.760557 -0.066391 -5.542006
v 0.760564 -0.066391 -5.542006
v -0.760557 -0.066391 -5.874142
v 0.760564 -0.066391 -5.874142
v -0.760557 -0.169346 -5.874142
v 0.760564 -0.169346 -5.874142
v -0.760557 -0.169346 -4.831366
v 0.760564 -0.169346 -4.831366
v -0.760557 -0.066391 -4.831366
v 0.760564 -0.066391 -4.831366
v -0.760557 -0.066391 -5.163502
v 0.760564 -0.066391 -5.163502
v -0.760557 -0.169346 -5.163502
v 0.760564 -0.169346 -5.163502
v -0.760557 -0.169346 -4.120725
v 0.760564 -0.169346 -4.120725
v -0.760557 -0.066391 -4.120725
v 0.760564 -0.066391 -4.120725
v -0.760557 -0.066391 -4.452861
v 0.760564 -0.066391 -4.452861
v -0.760557 -0.169346 -4.452861
v 0.760564 -0.169346 -4.452861
v -0.760557 -0.169346 -3.410085
v 0.760564 -0.169346 -3.410085
v -0.760557 -0.066391 -3.410085
v 0.760564 -0.066391 -3.410085
v -0.760557 -0.066391 -3.742221
v 0.760564 -0.066391 -3.742221
v -0.760557 -0.169346 -3.742221
v 0.760564 -0.169346 -3.742221
v -0.760557 -0.169346 -2.699445
v 0.760564 -0.169346 -2.699445
v -0.760557 -0.066391 -2.699445
v 0.760564 -0.066391 -2.699445
v -0.760557 -0.066391 -3.031581
v 0.760564 -0.066391 -3.031581
v -0.760557 -0.169346 -3.031581
v 0.760564 -0.169346 -3.031581
v -0.760557 -0.169346 -1.988804
v 0.760564 -0.169346 -1.988804
v -0.760557 -0.066391 -1.988804
v 0.760564 -0.066391 -1.988804
v -0.760557 -0.066391 -2.320940
v 0.760564 -0.066391 -2.320940
v -0.760557 -0.169346 -2.320940
v 0.760564 -0.169346 -2.320940
v -0.760557 -0.169346 -1.278164
v 0.760564 -0.169346 -1.278164
v -0.760557 -0.066391 -1.278164
v 0.760564 -0.066391 -1.278164
v -0.760557 -0.066391 -1.610300
v 0.760564 -0.066391 -1.610300
v -0.760557 -0.169346 -1.610300
v 0.760564 -0.169346 -1.610300
v -0.760557 -0.169346 -0.567524
v 0.760564 -0.169346 -0.567524
v -0.760557 -0.066391 -0.567524
v 0.760564 -0.066391 -0.567524
v -0.760557 -0.066391 -0.899660
v 0.760564 -0.066391 -0.899660
v -0.760557 -0.169346 -0.899660
v 0.760564 -0.169346 -0.899660
v -0.760557 -0.169346 0.143116
v 0.760564 -0.169346 0.143116
v -0.760557 -0.066391 0.143116
v 0.760564 -0.066391 0.143116
v -0.760557 -0.066391 -0.189020
v 0.760564 -0.066391 -0.189020
v -0.760557 -0.169346 -0.189020
v 0.760564 -0.169346 -0.189020
v -0.484368 -0.054510 0.353395
v -0.292546 -0.054510 0.353395
v -0.484368 0.067763 0.353395
v -0.292546 0.067763 0.353395
v -0.484368 0.067763 -8.935904
v -0.292546 0.067763 -8.935904
v -0.484368 -0.054510 -8.935904
v -0.292546 -0.054510 -8.935904
v 0.343629 -0.054510 0.353395
v 0.535451 -0.054510 0.353395
v 0.343629 0.067763 0.353395
v 0.535451 0.067763 0.353395
v 0.343629 0.067763 -8.935904
v 0.535451 0.067763 -8.935904
v 0.343629 -0.054510 -8.935904
v 0.535451 -0.054510 -8.935904
vt 0.259151 0.648325
vt 0.211904 0.648325
vt 0.211904 0.759488
vt 0.259151 0.759488
vt 0.259151 0.648325
vt 0.259151 0.759488
vt 0.211904 0.648325
vt 0.211904 0.759488
vt 0.259151 0.648325
vt 0.212870 0.646999
vt 0.212870 0.762648
vt 0.259151 0.759488
vt 0.258411 0.646999
vt 0.258411 0.762648
vt 0.211904 0.648325
vt 0.211904 0.759488
vt 0.259151 0.648325
vt 0.212870 0.646999
vt 0.212870 0.762648
vt 0.259151 0.759488
vt 0.258411 0.646999
vt 0.258411 0.762648
vt 0.211904 0.648325
vt 0.211904 0.759488
vt 0.259151 0.648325
vt 0.212870 0.646999
vt 0.212870 0.762648
vt 0.259151 0.759488
vt 0.258411 0.646999
vt 0.258411 0.762648
vt 0.211904 0.648325
vt 0.211904 0.759488
vt 0.259151 0.648325
vt 0.212870 0.646999
vt 0.212870 0.762648
vt 0.259151 0.759488
vt 0.258411 0.646999
vt 0.258411 0.762648
vt 0.211904 0.648325
vt 0.211904 0.759488
vt 0.259151 0.648325
vt 0.212870 0.646999
vt 0.212870 0.762648
vt 0.259151 0.759488
vt 0.258411 0.646999
vt 0.258411 0.762648
vt 0.211904 0.648325
vt 0.211904 0.759488
vt 0.259151 0.648325
vt 0.212870 0.646999
vt 0.212870 0.762648
vt 0.259151 0.759488
vt 0.258411 0.646999
vt 0.258411 0.762648
vt 0.211904 0.648325
vt 0.211904 0.759488
vt 0.259151 0.648325
vt 0.212870 0.646999
vt 0.212870 0.762648
vt 0.259151 0.759488
vt 0.258411 0.646999
vt 0.258411 0.762648
vt 0.211904 0.648325
vt 0.211904 0.759488
vt 0.259151 0.648325
vt 0.212870 0.646999
vt 0.212870 0.762648
vt 0.259151 0.759488
vt 0.258411 0.646999
vt 0.258411 0.762648
vt 0.211904 0.648325
vt 0.211904 0.759488
vt 0.259151 0.648325
vt 0.212870 0.646999
vt 0.212870 0.762648
vt 0.259151 0.759488
vt 0.258411 0.646999
vt 0.258411 0.762648
vt 0.211904 0.648325
vt 0.211904 0.759488
vt 0.259151 0.648325
vt 0.212870 0.646999
vt 0.212870 0.762648
vt 0.259151 0.759488
vt 0.258411 0.646999
vt 0.258411 0.762648
vt 0.211904 0.648325
vt 0.211904 0.759488
vt 0.259151 0.648325
vt 0.212870 0.646999
vt 0.212870 0.762648
vt 0.259151 0.759488
vt 0.258411 0.646999
vt 0.258411 0.762648
vt 0.211904 0.648325
vt 0.211904 0.759488
vt 0.259151 0.648325
vt 0.211904 0.648325
vt 0.211904 0.759488
vt 0.259151 0.759488
vt 0.259151 0.759488
vt 0.211904 0.759488
vt 0.259151 0.648325
vt 0.259151 0.759488
vt 0.211904 0.648325
vt 0.211904 0.759488
vt 0.259151 0.648325
vt 0.211904 0.648325
vt 0.211904 0.759488
vt 0.259151 0.759488
vt 0.259151 0.759488
vt 0.211904 0.759488
vt 0.259151 0.648325
vt 0.259151 0.759488
vt 0.211904 0.648325
vt 0.211904 0.759488
vt 0.344669 0.959009
vt 0.344669 0.629376
vt 0.387874 0.629376
vt 0.387874 0.959009
vt 0.344669 0.959009
vt 0.344669 0.629376
vt 0.387874 0.629376
vt 0.387874 0.959009
vt 0.480635 0.955988
vt 0.480635 0.626355
vt 0.558419 0.626355
vt 0.558419 0.955988
vt 0.825161 0.953898
vt 0.825161 0.624265
vt 0.902944 0.624265
vt 0.902944 0.953898
vt 0.661006 0.951256
vt 0.661006 0.621623
vt 0.738789 0.621623
vt 0.738789 0.951256
vt 0.826199 0.952595
vt 0.826199 0.622962
vt 0.903982 0.622962
vt 0.903982 0.952595
vt 0.823792 0.954943
vt 0.823792 0.625310
vt 0.901575 0.625310
vt 0.901575 0.954943
vt 0.659674 0.952058
vt 0.659674 0.622425
vt 0.737458 0.622425
vt 0.737458 0.952058
vt 0.344227 0.957726
vt 0.344227 0.628093
vt 0.387433 0.628093
vt 0.387433 0.957726
vt 0.344669 0.959009
vt 0.344669 0.629376
vt 0.387874 0.629376
vt 0.387874 0.959009
vt 0.344669 0.959009
vt 0.344669 0.629376
vt 0.387874 0.629376
vt 0.387874 0.959009
vt 0.481663 0.956337
vt 0.481663 0.626704
vt 0.559447 0.626704
vt 0.559447 0.956337
vt 0.330750 0.959009
vt 0.330750 0.629376
vt 0.401124 0.629376
vt 0.401124 0.959009
vt 0.330750 0.959009
vt 0.330750 0.629376
vt 0.401124 0.629376
vt 0.401124 0.959009
vt 0.455578 0.955988
vt 0.455578 0.626355
vt 0.582271 0.626355
vt 0.582271 0.955988
vt 0.800104 0.953898
vt 0.800104 0.624265
vt 0.926797 0.624265
vt 0.926797 0.953898
vt 0.635950 0.951256
vt 0.635950 0.621623
vt 0.762643 0.621623
vt 0.762643 0.951256
vt 0.801142 0.952595
vt 0.801142 0.622962
vt 0.927835 0.622962
vt 0.927835 0.952595
vt 0.798735 0.954943
vt 0.798735 0.625310
vt 0.925428 0.625310
vt 0.925428 0.954943
vt 0.634617 0.952058
vt 0.634617 0.622425
vt 0.761311 0.622425
vt 0.761311 0.952058
vt 0.330309 0.957726
vt 0.330309 0.628093
vt 0.400682 0.628093
vt 0.400682 0.957726
vt 0.330750 0.959009
vt 0.330750 0.629376
vt 0.401124 0.629376
vt 0.401124 0.959009
vt 0.330750 0.959009
vt 0.330750 0.629376
vt 0.401124 0.629376
vt 0.401124 0.959009
vt 0.456607 0.956337
vt 0.456607 0.626704
vt 0.583300 0.626704
vt 0.583300 0.956337
vt 0.211904 0.648325
vt 0.259151 0.648325
vt 0.259151 0.759488
vt 0.211904 0.759488
vt 0.211904 0.648325
vt 0.259151 0.648325
vt 0.259151 0.759488
vt 0.211904 0.759488
vt 0.482460 0.955490
vt 0.482460 0.625857
vt 0.560243 0.625857
vt 0.560243 0.955490
vt 0.457403 0.955490
vt 0.457403 0.625857
vt 0.584096 0.625857
vt 0.584096 0.955490
vt 0.211904 0.648325
vt 0.259151 0.648325
vt 0.211904 0.648325
vt 0.259151 0.648325
vt 0.344669 0.629376
vt 0.387874 0.629376
vt 0.344669 0.959009
vt 0.387874 0.959009
vn 0.000000 0.000000 1.000000
vn 0.000000 0.000000 1.000000
vn 0.000000 0.000000 1.000000
vn 0.000000 0.000000 1.000000
vn 0.000000 1.000000 0.000000
vn 0.000000 1.000000 0.000000
vn 0.000000 1.000000 0.000000
vn 0.000000 1.000000 0.000000
vn 0.000000 0.000000 -1.000000
vn 0.000000 0.000000 -1.000000
vn 0.000000 0.000000 -1.000000
vn 0.000000 0.000000 -1.000000
vn 1.000000 0.000000 0.000000
vn 1.000000 0.000000 0.000000
vn 1.000000 0.000000 0.000000
vn 1.000000 0.000000 0.000000
vn -1.000000 0.000000 0.000000
vn -1.000000 0.000000 0.000000
vn -1.000000 0.000000 0.000000
vn -1.000000 0.000000 0.000000
vn 0.000000 0.000000 1.000000
vn 0.000000 0.000000 1.000000
vn 0.000000 0.000000 1.000000
vn 0.000000 0.000000 1.000000
vn 0.000000 1.000000 0.000000
vn 0.000000 1.000000 0.000000
vn 0.000000 1.000000 0.000000
vn 0.000000 1.000000 0.000000
vn 0.000000 0.000000 -1.000000
vn 0.000000 0.000000 -1.000000
vn 0.000000 0.000000 -1.000000
vn 0.000000 0.000000 -1.000000
vn 1.000000 0.000000 0.000000
vn 1.000000 0.000000 0.000000
vn 1.000000 0.000000 0.000000
vn 1.000000 0.000000 0.000000
vn -1.000000 0.000000 0.000000
vn -1.000000 0.000000 0.000000
vn -1.000000 0.000000 0.000000
vn -1.000000 0.000000 0.000000
vn 0.000000 0.000000 1.000000
vn 0.000000 0.000000 1.000000
vn 0.000000 0.000000 1.000000
vn 0.000000 0.000000 1.000000
vn 0.000000 1.000000 0.000000
vn 0.000000 1.000000 0.000000
vn 0.000000 1.000000 0.000000
vn 0.000000 1.000000 0.000000
vn 0.000000 0.000000 -1.000000
vn 0.000000 0.000000 -1.000000
vn 0.000000 0.000000 -1.000000
vn 0.000000 0.000000 -1.000000
vn 1.000000 0.000000 0.000000
vn 1.000000 0.000000 0.000000
vn 1.000000 0.000000 0.000000
vn 1.000000 0.000000 0.000000
vn -1.000000 0.000000 0.000000
vn -1.000000 0.000000 0.000000
vn -1.000000 0.000000 0.000000
vn -1.000000 0.000000 0.000000
vn 0.000000 0.000000 1.000000
vn 0.000000 0.000000 1.000000
vn 0.000000 0.000000 1.000000
vn 0.000000 0.000000 1.000000
vn 0.000000 1.000000 0.000000
vn 0.000000 1.000000 0.000000
vn 0.000000 1.000000 0.000000
vn 0.000000 1.000000 0.000000
vn 0.000000 0.000000 -1.000000
vn 0.000000 0.000000 -1.000000
vn 0.000000 0.000000 -1.000000
vn 0.000000 0.000000 -1.000000
vn 1.000000 0.000000 0.000000
vn 1.000000 0.000000 0.000000
vn 1.000000 0.000000 0.000000
vn 1.000000 0.000000 0.000000
vn -1.000000 0.000000 0.000000
vn -1.000000 0.000000 0.000000
vn -1.000000 0.000000 0.000000
vn -1.000000 0.000000 0.000000
vn 0.000000 0.000000 1.000000
vn 0.000000 0.000000 1.000000
vn 0.000000 0.000000 1.000000
vn 0.000000 0.000000 1.000000
vn 0.000000 1.000000 0.000000
vn 0.000000 1.000000 0.000000
vn 0.000000 1.000000 0.000000
vn 0.000000 1.000000 0.000000
vn 0.000000 0.000000 -1.000000
vn 0.000000 0.000000 -1.000000
vn 0.000000 0.000000 -1.000000
vn 0.000000 0.000000 -1.000000
vn 1.000000 0.000000 0.000000
vn 1.000000 0.000000 0.000000
vn 1.000000 0.000000 0.000000
vn 1.000000 0.000000 0.000000
vn -1.000000 0.000000 0.000000
vn -1.000000 0.000000 0.000000
vn -1.000000 0.000000 0.000000
vn -1.000000 0.000000 0.000000
vn 0.000000 0.000000 1.000000
vn 0.000000 0.000000 1.000000
vn 0.000000 0.000000 1.000000
vn 0.000000 0.000000 1.000000
vn 0.000000 1.000000 0.000000
vn 0.000000 1.000000 0.000000
vn 0.000000 1.000000 0.000000
vn 0.000000 1.000000 0.000000
vn 0.000000 0.000000 -1.000000
vn 0.000000 0.000000 -1.000000
vn 0.000000 0.000000 -1.000000
vn 0.000000 0.000000 -1.000000
vn 1.000000 0.000000 0.000000
vn 1.000000 0.000000 0.000000
vn 1.000000 0.000000 0.000000
vn 1.000000 0.000000 0.000000
vn -1.000000 0.000000 0.000000
vn -1.000000 0.000000 0.000000
vn -1.000000 0.000000 0.000000
vn -1.000000 0.000000 0.000000
vn 0.000000 0.000000 1.000000
vn 0.000000 0.000000 1.000000
vn 0.000000 0.000000 1.000000
vn 0.000000 0.000000 1.000000
vn 0.000000 1.000000 0.000000
vn 0.000000 1.000000 0.000000
vn 0.000000 1.000000 0.000000
vn 0.000000 1.000000 0.000000
vn 0.000000 0.000000 -1.000000
vn 0.000000 0.000000 -1.000000
vn 0.000000 0.000000 -1.000000
vn 0.000000 0.000000 -1.000000
vn 1.000000 0.000000 0.000000
vn 1.000000 0.000000 0.000000
vn 1.000000 0.000000 0.000000
vn 1.000000 0.000000 0.000000
vn -1.000000 0.000000 0.000000
vn -1.000000 0.000000 0.000000
vn -1.000000 0.000000 0.000000
vn -1.000000 0.000000 0.000000
vn 0.000000 0.000000 1.000000
vn 0.000000 0.000000 1.000000
vn 0.000000 0.000000 1.000000
vn 0.000000 0.000000 1.000000
vn 0.000000 1.000000 0.000000
vn 0.000000 1.000000 0.000000
vn 0.000000 1.000000 0.000000
vn 0.000000 1.000000 0.000000
vn 0.000000 0.000000 -1.000000
vn 0.000000 0.000000 -1.000000
vn 0.000000 0.000000 -1.000000
vn 0.000000 0.000000 -1.000000
vn 1.000000 0.000000 0.000000
vn 1.000000 0.000000 0.000000
vn 1.000000 0.000000 0.000000
vn 1.000000 0.000000 0.000000
vn -1.000000 0.000000 0.000000
vn -1.000000 0.000000 0.000000
vn -1.000000 0.000000 0.000000
vn -1.000000 0.000000 0.000000
vn 0.000000 0.000000 1.000000
vn 0.000000 0.000000 1.000000
vn 0.000000 0.000000 1.000000
vn 0.000000 0.000000 1.000000
vn 0.000000 1.000000 0.000000
vn 0.000000 1.000000 0.000000
vn 0.000000 1.000000 0.000000
vn 0.000000 1.000000 0.000000
vn 0.000000 0.000000 -1.000000
vn 0.000000 0.000000 -1.000000
vn 0.000000 0.000000 -1.000000
vn 0.000000 0.000000 -1.000000
vn 1.000000 0.000000 0.000000
vn 1.000000 0.000000 0.000000
vn 1.000000 0.000000 0.000000
vn 1.000000 0.000000 0.000000
vn -1.000000 0.000000 0.000000
vn -1.000000 0.000000 0.000000
vn -1.000000 0.000000 0.000000
vn -1.000000 0.000000 0.000000
vn 0.000000 0.000000 1.000000
vn 0.000000 0.000000 1.000000
vn 0.000000 0.000000 1.000000
vn 0.000000 0.000000 1.000000
vn 0.000000 1.000000 0.000000
vn 0.000000 1.000000 0.000000
vn 0.000000 1.000000 0.000000
vn 0.000000 1.000000 0.000000
vn 0.000000 0.000000 -1.000000
vn 0.000000 0.000000 -1.000000
vn 0.000000 0.000000 -1.000000
vn 0.000000 0.000000 -1.000000
vn 1.000000 0.000000 0.000000
vn 1.000000 0.000000 0.000000
vn 1.000000 0.000000 0.000000
vn 1.000000 0.000000 0.000000
vn -1.000000 0.000000 0.000000
vn -1.000000 0.000000 0.000000
vn -1.000000 0.000000 0.000000
vn -1.000000 0.000000 0.000000
vn 0.000000 0.000000 1.000000
vn 0.000000 0.000000 1.000000
vn 0.000000 0.000000 1.000000
vn 0.000000 0.000000 1.000000
vn 0.000000 1.000000 0.000000
vn 0.000000 1.000000 0.000000
vn 0.000000 1.000000 0.000000
vn 0.000000 1.000000 0.000000
vn 0.000000 0.000000 -1.000000
vn 0.000000 0.000000 -1.000000
vn 0.000000 0.000000 -1.000000
vn 0.000000 0.000000 -1.000000
vn 1.000000 0.000000 0.000000
vn 1.000000 0.000000 0.000000
vn 1.000000 0.000000 0.000000
vn 1.000000 0.000000 0.000000
vn -1.000000 0.000000 0.000000
vn -1.000000 0.000000 0.000000
vn -1.000000 0.000000 0.000000
vn -1.000000 0.000000 0.000000
vn 0.000000 0.000000 1.000000
vn 0.000000 0.000000 1.000000
vn 0.000000 0.000000 1.000000
vn 0.000000 0.000000 1.000000
vn 0.000000 1.000000 0.000000
vn 0.000000 1.000000 0.000000
vn 0.000000 1.000000 0.000000
vn 0.000000 1.000000 0.000000
vn 0.000000 0.000000 -1.000000
vn 0.000000 0.000000 -1.000000
vn 0.000000 0.000000 -1.000000
vn 0.000000 0.000000 -1.000000
vn 1.000000 0.000000 0.000000
vn 1.000000 0.000000 0.000000
vn 1.000000 0.000000 0.000000
vn 1.000000 0.000000 0.000000
vn -1.000000 0.000000 0.000000
vn -1.000000 0.000000 0.000000
vn -1.000000 0.000000 0.000000
vn -1.000000 0.000000 0.000000
vn 0.000000 0.000000 1.000000
vn 0.000000 0.000000 1.000000
vn 0.000000 0.000000 1.000000
vn 0.000000 0.000000 1.000000
vn 0.000000 1.000000 0.000000
vn 0.000000 1.000000 0.000000
vn 0.000000 1.000000 0.000000
vn 0.000000 1.000000 0.000000
vn 0.000000 0.000000 -1.000000
vn 0.000000 0.000000 -1.000000
vn 0.000000 0.000000 -1.000000
vn 0.000000 0.000000 -1.000000
vn 1.000000 0.000000 0.000000
vn 1.000000 0.000000 0.000000
vn 1.000000 0.000000 0.000000
vn 1.000000 0.000000 0.000000
vn -1.000000 0.000000 0.000000
vn -1.000000 0.000000 0.000000
vn -1.000000 0.000000 0.000000
vn -1.000000 0.000000 0.000000
vn 0.000000 1.000000 0.000000
vn 0.000000 1.000000 0.000000
vn 0.000000 1.000000 0.000000
vn 0.000000 1.000000 0.000000
vn 1.000000 0.000000 0.000000
vn 1.000000 0.000000 0.000000
vn 1.000000 0.000000 0.000000
vn 1.000000 0.000000 0.000000
vn -1.000000 0.000000 0.000000
vn -1.000000 0.000000 0.000000
vn -1.000000 0.000000 0.000000
vn -1.000000 0.000000 0.000000
vn 0.000000 1.000000 0.000000
vn 0.000000 1.000000 0.000000
vn 0.000000 1.000000 0.000000
vn 0.000000 1.000000 0.000000
vn 1.000000 0.000000 0.000000
vn 1.000000 0.000000 0.000000
vn 1.000000 0.000000 0.000000
vn 1.000000 0.000000 0.000000
vn -1.000000 0.000000 0.000000
vn -1.000000 0.000000 0.000000
vn -1.000000 0.000000 0.000000
vn -1.000000 0.000000 0.000000
s off
g rail_straight
usemtl lambert5SG
f 1/225/1 2/226/2 4/222/3 3/221/4
f 3/221/5 4/222/6 6/223/7 5/224/8
f 5/224/9 6/223/10 8/227/11 7/228/12
f 2/213/13 8/214/14 6/215/15 4/216/16
f 7/217/17 1/218/18 3/219/19 5/220/20
f 9/165/21 10/166/22 12/118/23 11/117/24
f 11/117/25 12/118/26 14/119/27 13/120/28
f 13/120/29 14/119/30 16/167/31 15/168/32
f 10/2/33 16/5/34 14/6/35 12/3/36
f 15/7/37 9/1/38 11/4/39 13/8/40
f 17/169/41 18/170/42 20/122/43 19/121/44
f 19/121/45 20/122/46 22/123/47 21/124/48
f 21/124/49 22/123/50 24/171/51 23/172/52
f 18/10/53 24/13/54 22/14/55 20/11/56
f 23/15/57 17/9/58 19/12/59 21/16/60
f 25/173/61 26/174/62 28/126/63 27/125/64
f 27/125/65 28/126/66 30/127/67 29/128/68
f 29/128/69 30/127/70 32/175/71 31/176/72
f 26/18/73 32/21/74 30/22/75 28/19/76
f 31/23/77 25/17/78 27/20/79 29/24/80
f 33/177/81 34/178/82 36/130/83 35/129/84
f 35/129/85 36/130/86 38/131/87 37/132/88
f 37/132/89 38/131/90 40/179/91 39/180/92
f 34/26/93 40/29/94 38/30/95 36/27/96
f 39/31/97 33/25/98 35/28/99 37/32/100
f 41/181/101 42/182/102 44/134/103 43/133/104
f 43/133/105 44/134/106 46/135/107 45/136/108
f 45/136/109 46/135/110 48/183/111 47/184/112
f 42/34/113 48/37/114 46/38/115 44/35/116
f 47/39/117 41/33/118 43/36/119 45/40/120
f 49/185/121 50/186/122 52/138/123 51/137/124
f 51/137/125 52/138/126 54/139/127 53/140/128
f 53/140/129 54/139/130 56/187/131 55/188/132
f 50/42/133 56/45/134 54/46/135 52/43/136
f 55/47/137 49/41/138 51/44/139 53/48/140
f 57/189/141 58/190/142 60/142/143 59/141/144
f 59/141/145 60/142/146 62/143/147 61/144/148
f 61/144/149 62/143/150 64/191/151 63/192/152
f 58/50/153 64/53/154 62/54/155 60/51/156
f 63/55/157 57/49/158 59/52/159 61/56/160
f 65/193/161 66/194/162 68/146/163 67/145/164
f 67/145/165 68/146/166 70/147/167 69/148/168
f 69/148/169 70/147/170 72/195/171 71/196/172
f 66/58/173 72/61/174 70/62/175 68/59/176
f 71/63/177 65/57/178 67/60/179 69/64/180
f 73/197/181 74/198/182 76/150/183 75/149/184
f 75/149/185 76/150/186 78/151/187 77/152/188
f 77/152/189 78/151/190 80/199/191 79/200/192
f 74/66/193 80/69/194 78/70/195 76/67/196
f 79/71/197 73/65/198 75/68/199 77/72/200
f 81/201/201 82/202/202 84/154/203 83/153/204
f 83/153/205 84/154/206 86/155/207 85/156/208
f 85/156/209 86/155/210 88/203/211 87/204/212
f 82/74/213 88/77/214 86/78/215 84/75/216
f 87/79/217 81/73/218 83/76/219 85/80/220
f 89/205/221 90/206/222 92/158/223 91/235/224
f 91/157/225 92/233/226 94/159/227 93/236/228
f 93/160/229 94/234/230 96/207/231 95/208/232
f 90/82/233 96/85/234 94/86/235 92/83/236
f 95/87/237 89/81/238 91/84/239 93/88/240
f 97/209/241 98/210/242 100/162/243 99/161/244
f 99/161/245 100/162/246 102/163/247 101/164/248
f 101/164/249 102/163/250 104/211/251 103/212/252
f 98/90/253 104/93/254 102/94/255 100/91/256
f 103/95/257 97/89/258 99/92/259 101/96/260
f 107/229/261 108/230/262 110/101/263 109/102/264
f 106/98/265 112/103/266 110/104/267 108/99/268
f 111/105/269 105/97/270 107/100/271 109/106/272
f 115/231/273 116/232/274 118/111/275 117/112/276
f 114/108/277 120/113/278 118/114/279 116/109/280
f 119/115/281 113/107/282 115/110/283 117/116/284
